<!--Todo: change current favicon to have brighter/no background -->

<?xml version="1.0" encoding="UTF-8"?>
<svg version="1.1" xmlns="http://www.w3.org/2000/svg" width="300" height="300">
<!-- <svg version="1.1" xmlns="http://www.w3.org/2000/svg" width="300" height="300"> -->
<path d="M0 0 C0.7515033 0.00281982 1.50300659 0.00563965 2.27728271 0.00854492 C38.31120804 0.21157993 71.8448149 12.84011455 99.3125 36.3125 C100.14394531 37.00988281 100.97539062 37.70726562 101.83203125 38.42578125 C108.09716473 43.84401496 113.25378409 49.77013242 118.3125 56.3125 C119.40691406 57.66601562 119.40691406 57.66601562 120.5234375 59.046875 C140.97347903 85.02201547 150.77838542 116.91741384 150.6875 149.75 C150.68668427 150.86459595 150.68668427 150.86459595 150.68585205 152.00170898 C150.59971407 177.71630708 144.58209424 200.7463116 132.3125 223.3125 C131.75820313 224.35921875 131.20390625 225.4059375 130.6328125 226.484375 C112.61698027 259.0680333 80.25869127 284.3191676 44.61328125 294.71484375 C29.94580432 298.79050836 15.78213786 300.70172036 0.5625 300.625 C-0.18862061 300.62317719 -0.93974121 300.62135437 -1.71362305 300.61947632 C-12.67083503 300.57469168 -23.03573022 300.08487844 -33.6875 297.3125 C-35.12088427 296.97956559 -36.55448807 296.64757525 -37.98828125 296.31640625 C-60.6185596 290.8177364 -81.21717803 279.61639094 -98.6875 264.3125 C-99.88826172 263.29349609 -99.88826172 263.29349609 -101.11328125 262.25390625 C-106.1072128 257.948214 -110.53010314 253.42661999 -114.6875 248.3125 C-115.44804688 247.38953125 -116.20859375 246.4665625 -116.9921875 245.515625 C-138.89840396 218.36955569 -150.15884029 185.67817212 -150.0625 150.875 C-150.06195618 150.13193604 -150.06141235 149.38887207 -150.06085205 148.62329102 C-149.97471407 122.90869292 -143.95709424 99.8786884 -131.6875 77.3125 C-130.85605469 75.74242188 -130.85605469 75.74242188 -130.0078125 74.140625 C-110.92143799 39.62077063 -77.85141658 16.2552009 -40.61328125 5.06640625 C-27.10603847 1.27660432 -13.96949179 -0.07575521 0 0 Z " fill="#010100" transform="translate(149.6875,-0.3125)"/>
<path d="M0 0 C1.02353577 0.15608482 1.02353577 0.15608482 2.06774902 0.31532288 C4.2075875 0.64393912 6.34409168 0.98945311 8.48046875 1.33984375 C9.25634842 1.46686172 10.03222809 1.5938797 10.83161926 1.7247467 C12.45780346 1.9919271 14.08383463 2.26004049 15.7097168 2.52905273 C18.19042319 2.93798187 20.67231834 3.33910901 23.15429688 3.74023438 C24.74226704 4.00212231 26.33016049 4.26447597 27.91796875 4.52734375 C28.65452194 4.6451268 29.39107513 4.76290985 30.14994812 4.88426208 C37.56121177 6.1300129 41.20796478 7.76489785 46.1875 13.4375 C47.04730469 14.40558594 47.90710938 15.37367187 48.79296875 16.37109375 C51 19 51 19 53 22 C59.56849603 21.41352714 65.95457824 20.31080565 72.4140625 19.01635742 C75.70934266 18.36889886 78.62237286 18 82 18 C83.640625 19.46875 83.640625 19.46875 85.25 21.5 C88.92166875 25.94671183 92.88584104 29.96465635 97 34 C100.91051697 37.83560285 104.76277023 41.66234864 108.328125 45.82421875 C112.86229588 51.0879228 117.81799097 55.9249543 122.75 60.8125 C123.70466353 61.76213215 124.65909201 62.71200066 125.61328125 63.66210938 C127.35529186 65.3954471 129.09833303 67.12775023 130.84277344 68.85864258 C131.5546582 69.56529053 132.26654297 70.27193848 133 71 C133.59071289 71.54873779 134.18142578 72.09747559 134.79003906 72.6628418 C136 74 136 74 136 76 C132.9802953 76.29256654 131.49417209 76.3643308 129.0078125 74.53125 C128.38648438 73.8609375 127.76515625 73.190625 127.125 72.5 C126.50882813 71.8503125 125.89265625 71.200625 125.2578125 70.53125 C123.99545166 69.11600809 122.73866304 67.69556163 121.50341797 66.2565918 C116.85849411 60.86255157 111.93441723 55.81737957 106.875 50.8125 C105.69744141 49.64170898 105.69744141 49.64170898 104.49609375 48.44726562 C101.41240342 45.38177582 98.32464883 42.32052776 95.23046875 39.265625 C92.88774018 36.88597076 90.65566428 34.43341702 88.4375 31.9375 C86.96720488 30.28373652 85.48839089 28.63749624 84 27 C82.99646484 25.82630859 82.99646484 25.82630859 81.97265625 24.62890625 C80.16783909 22.78734271 80.16783909 22.78734271 77.98828125 22.99609375 C75.42074199 24.29247408 74.03996208 25.86293709 72.1875 28.0625 C71.135625 29.29226562 71.135625 29.29226562 70.0625 30.546875 C69.381875 31.35640625 68.70125 32.1659375 68 33 C66.89935998 34.27388891 65.79534386 35.54487097 64.6875 36.8125 C64.12160156 37.4621875 63.55570312 38.111875 62.97265625 38.78125 C61.02454271 40.97239553 59.03997987 43.12692105 57.04711914 45.27734375 C52.17796768 50.53351961 47.57516477 55.92175461 43.08203125 61.5078125 C40.25742891 64.8888562 37.20457663 67.98089726 34 71 C30.58625378 69.60767567 29.25013015 68.27937483 27.52734375 65.04296875 C27.10259766 64.25986328 26.67785156 63.47675781 26.24023438 62.66992188 C25.81033203 61.85072266 25.38042969 61.03152344 24.9375 60.1875 C24.07221456 58.57650052 23.2063445 56.96581489 22.33984375 55.35546875 C21.93749512 54.59669434 21.53514648 53.83791992 21.12060547 53.05615234 C20.20409185 51.37447964 19.20824035 49.73626268 18.19140625 48.11328125 C17 46 17 46 17 43 C18.98689731 41.64721885 20.98745218 40.31431695 23 39 C23.33 38.01 23.66 37.02 24 36 C19.05 36.495 19.05 36.495 14 37 C17.75 33.125 17.75 33.125 20 32 C19.48751744 27.86217786 17.32569018 26.04914415 14.375 23.25 C11.22137452 20.1950655 8.16750777 17.14876193 5.3125 13.8125 C-0.41320961 6.62251041 -0.41320961 6.62251041 -8 2 C-8.22816406 2.55268555 -8.45632812 3.10537109 -8.69140625 3.67480469 C-10.37845518 6.67246403 -12.50812518 8.7676506 -14.9375 11.203125 C-15.41823975 11.6857782 -15.89897949 12.1684314 -16.39428711 12.66571045 C-17.40721093 13.67999064 -18.42264638 14.69176804 -19.44042969 15.70117188 C-21.00173165 17.25171972 -22.55202497 18.81270503 -24.1015625 20.375 C-25.08790061 21.36001734 -26.0748585 22.34441453 -27.0625 23.328125 C-27.96097656 24.2243457 -28.85945313 25.12056641 -29.78515625 26.04394531 C-32 28 -32 28 -34 28 C-32.48099978 24.3758636 -30.31929546 22.142376 -27.5 19.4375 C-24.97190847 17.0038015 -22.95327066 14.92990599 -21 12 C-20.34 12 -19.68 12 -19 12 C-18.75507812 11.43925781 -18.51015625 10.87851563 -18.2578125 10.30078125 C-16.75733512 7.55611921 -15.00214932 5.48141189 -12.875 3.1875 C-12.15054688 2.37667969 -11.42609375 1.56585938 -10.6796875 0.73046875 C-6.98526943 -1.65528519 -4.12358654 -0.68262843 0 0 Z " fill="#F4B87B" transform="translate(127,62)"/>
<path d="M0 0 C4.50964675 -0.51245986 7.76823371 0.57497094 12 2 C13.99323712 2.49549304 15.99384545 2.96205808 18 3.40234375 C19.12857422 3.65121338 20.25714844 3.90008301 21.41992188 4.15649414 C23.19206055 4.54309204 23.19206055 4.54309204 25 4.9375 C26.20720703 5.20618896 27.41441406 5.47487793 28.65820312 5.75170898 C33.68754758 6.86636626 38.70961096 7.97684152 43.78125 8.8828125 C45.0084375 9.10710937 46.235625 9.33140625 47.5 9.5625 C48.5209375 9.72878906 49.541875 9.89507812 50.59375 10.06640625 C53.81952267 11.31796415 54.59061312 12.90982403 56 16 C56 16.66 56 17.32 56 18 C57.32 18 58.64 18 60 18 C60 17.34 60 16.68 60 16 C61.32 16 62.64 16 64 16 C64.57500244 17.07483643 64.57500244 17.07483643 65.16162109 18.17138672 C66.89572149 21.40791884 68.6352865 24.64148186 70.375 27.875 C70.97828125 29.00292969 71.5815625 30.13085938 72.203125 31.29296875 C72.78320312 32.36933594 73.36328125 33.44570312 73.9609375 34.5546875 C74.49509277 35.54968262 75.02924805 36.54467773 75.57958984 37.56982422 C76.90614584 40.07525251 76.90614584 40.07525251 79 42 C79 42.99 79 43.98 79 45 C73.46857942 45.27360538 67.94115464 45.47225249 62.40454102 45.60424805 C60.52526205 45.6592978 58.64644856 45.73417115 56.76879883 45.82983398 C41.16647471 46.6043587 41.16647471 46.6043587 35.86474609 42.67822266 C33.59491638 39.89088487 31.81693819 37.09455921 30 34 C28.53777166 32.30009822 27.04178274 30.62809207 25.5 29 C21.57334591 24.69092394 17.88501778 20.22650966 14.21875 15.6953125 C10.9257499 11.69501308 7.47871594 7.83890997 4 4 C0.01912835 5.60177782 -2.65493174 8.38230594 -5.61328125 11.3828125 C-6.14592087 11.91591034 -6.67856049 12.44900818 -7.2273407 12.9982605 C-8.35339921 14.12733517 -9.4770312 15.25883441 -10.59838867 16.39257812 C-12.29108744 18.10335871 -13.99147489 19.80617492 -15.69335938 21.5078125 C-20.82453288 26.65605189 -25.88872954 31.81717631 -30.59741211 37.36083984 C-32.93355359 40.09101459 -35.33840698 42.58036998 -38 45 C-38.99 45 -39.98 45 -41 45 C-39.41060574 41.06785699 -36.83657498 38.66979654 -33.8125 35.75 C-30.64886139 32.65980391 -27.53900515 29.57274843 -24.6875 26.1875 C-18.36329747 18.77079533 -11.16470114 12.06609401 -4.1953125 5.26171875 C-1.87285669 3.005895 -1.87285669 3.005895 0 0 Z " fill="#FAF9F7" transform="translate(76,93)"/>
<path d="M0 0 C1.22203125 0.28943481 1.22203125 0.28943481 2.46875 0.5847168 C7.58442758 1.89625077 11.65017812 3.75231186 16.125 6.5625 C12.90807855 7.63480715 11.88477701 7.49944604 8.6875 6.75 C7.92566406 6.57855469 7.16382813 6.40710938 6.37890625 6.23046875 C4.125 5.5625 4.125 5.5625 2.36035156 4.58984375 C-7.36654272 0.11946683 -20.47130846 1.21999223 -30.97729492 1.24682617 C-33.5419418 1.24997476 -36.10541735 1.2264706 -38.66992188 1.20117188 C-54.32642414 1.14204123 -69.1747975 3.72020709 -84.4609375 6.87890625 C-87.61300243 7.51004053 -90.76340863 8.05581787 -93.9375 8.5625 C-99.50197765 9.4599964 -104.98692277 10.6359452 -110.4921875 11.83984375 C-114.3872917 12.67193876 -118.29197882 13.40233134 -122.21484375 14.08984375 C-124.06443397 14.41847872 -125.91068208 14.76626377 -127.75390625 15.12890625 C-132.89691058 16.12951798 -137.63530085 16.79537552 -142.875 16.5625 C-142.875 17.2225 -142.875 17.8825 -142.875 18.5625 C-162.63226414 23.21373291 -182.38173161 24.9595482 -202.625 25 C-203.86626144 25.00885223 -203.86626144 25.00885223 -205.13259888 25.0178833 C-221.63530235 25.09780748 -237.24178011 23.01880028 -252.875 17.5625 C-253.93332031 17.20800781 -254.99164063 16.85351562 -256.08203125 16.48828125 C-263.73312645 13.84624709 -263.73312645 13.84624709 -264.875 11.5625 C-263.12429483 11.67720137 -261.37442464 11.80469028 -259.625 11.9375 C-258.65046875 12.00710937 -257.6759375 12.07671875 -256.671875 12.1484375 C-253.875 12.5625 -253.875 12.5625 -252.14501953 13.51928711 C-241.78642963 18.27969307 -226.96560298 16.92471341 -215.75 16.875 C-214.52740982 16.87326279 -214.52740982 16.87326279 -213.28012085 16.87149048 C-201.86133553 16.83969565 -190.55139666 16.37402041 -179.1875 15.25 C-177.99688965 15.13245361 -176.8062793 15.01490723 -175.57958984 14.89379883 C-169.35537897 14.19512647 -163.52555923 13.04835089 -157.51733398 11.29174805 C-153.15192992 10.08695622 -148.71165864 9.37667933 -144.25 8.625 C-137.44679623 7.43659954 -130.70958483 6.13814969 -124 4.5 C-111.49983556 1.471114 -98.89920855 -0.64021624 -86.1875 -2.5625 C-85.07133301 -2.73330078 -83.95516602 -2.90410156 -82.80517578 -3.08007812 C-54.95272444 -7.19664829 -27.37323732 -6.54807807 0 0 Z " fill="#F0EDEA" transform="translate(272.875,145.4375)"/>
<path d="M0 0 C3.13440333 0.57691253 4.76285719 1.39132388 6.98828125 3.66015625 C7.79555664 4.47419922 7.79555664 4.47419922 8.61914062 5.3046875 C9.17794922 5.88476562 9.73675781 6.46484375 10.3125 7.0625 C10.89064453 7.65160156 11.46878906 8.24070312 12.06445312 8.84765625 C15.69613959 12.57330086 19.21437372 16.37510472 22.5625 20.359375 C23.95618853 21.94999778 25.43141799 23.33486623 27 24.75 C29 27 29 27 29.125 29.125 C27.5785223 31.70246284 25.63641183 32.64799393 23 34 C25.97 34 28.94 34 32 34 C30.93197254 38.27210984 30.56121574 38.84168743 27 41 C26.34 41 25.68 41 25 41 C27.97921248 47.19570738 31.16571479 53.00062035 35.05859375 58.67578125 C36 61 36 61 35.22265625 63.60546875 C34.61744141 64.79076172 34.61744141 64.79076172 34 66 C33.505 67.485 33.505 67.485 33 69 C31.37087868 65.93967541 29.747443 62.87636963 28.125 59.8125 C27.43470703 58.51602539 27.43470703 58.51602539 26.73046875 57.19335938 C26.06337891 55.93168945 26.06337891 55.93168945 25.3828125 54.64453125 C24.97434082 53.87471924 24.56586914 53.10490723 24.14501953 52.31176758 C22.95923679 49.91770003 21.95988744 47.49223788 21 45 C19.68 45 18.36 45 17 45 C17 45.66 17 46.32 17 47 C15.68 47 14.36 47 13 47 C10.58152803 44.49515403 10 43.53986194 10 40 C8.77772705 39.846521 8.77772705 39.846521 7.53076172 39.68994141 C-2.07050963 38.41004163 -11.43224334 36.50106984 -20.875 34.375 C-22.35275748 34.04639298 -23.83062168 33.71826553 -25.30859375 33.390625 C-28.87363762 32.59924926 -32.43721297 31.80148293 -36 31 C-36 30.67 -36 30.34 -36 30 C-33.03 30 -30.06 30 -27 30 C-27 28.02 -27 26.04 -27 24 C-26.67 24.66 -26.34 25.32 -26 26 C-20.09397366 20.97570995 -14.52985478 15.68345471 -9.0625 10.1875 C-8.29615234 9.42501953 -7.52980469 8.66253906 -6.74023438 7.87695312 C-6.01255859 7.14798828 -5.28488281 6.41902344 -4.53515625 5.66796875 C-3.879104 5.01078857 -3.22305176 4.3536084 -2.54711914 3.67651367 C-0.91729521 2.06619412 -0.91729521 2.06619412 0 0 Z " fill="#100D09" transform="translate(119,64)"/>
<path d="M0 0 C7.58965169 3.44086161 12.42882627 10.66589694 17.515625 17.015625 C20.67270593 20.80809329 24.02227397 24.39917051 27.45800781 27.94018555 C29.88437386 30.50343922 31.59371121 32.41958008 32 36 C26.1250091 31.43056263 21.52778161 26.04454891 16.80078125 20.34765625 C13.00323703 15.77558689 9.01003316 11.38628318 5 7 C1.21443021 8.70155508 -0.12442627 10.24885253 -2 14 C-2.69579454 16.19130534 -2.69579454 16.19130534 -3 18 C-2.01 17.34 -1.02 16.68 0 16 C4.17093474 15.45932327 6.29917198 15.58248543 9.9375 17.75 C13.01719026 22.60284527 12.60238608 27.38920393 12 33 C11 34 11 34 7.40234375 34.09765625 C5.91402745 34.09191272 4.42573704 34.07889891 2.9375 34.0625 C0.318125 34.041875 -2.30125 34.02125 -5 34 C-5 28.72 -5 23.44 -5 18 C-10.18354821 20.59177411 -12.08117773 21.75515008 -15.625 25.875 C-16.35976563 26.71804687 -17.09453125 27.56109375 -17.8515625 28.4296875 C-20.04448494 30.98219231 -20.04448494 30.98219231 -21.9765625 33.80078125 C-24 36 -24 36 -26.359375 36.48828125 C-27.54273438 36.40126953 -27.54273438 36.40126953 -28.75 36.3125 C-29.54921875 36.26738281 -30.3484375 36.22226563 -31.171875 36.17578125 C-32.07679687 36.08876953 -32.07679687 36.08876953 -33 36 C-31.64768813 32.97022571 -30.14519457 30.91527387 -27.76953125 28.609375 C-27.1348291 27.98627441 -26.50012695 27.36317383 -25.84619141 26.72119141 C-24.83951416 25.74545166 -24.83951416 25.74545166 -23.8125 24.75 C-19.23585903 20.25098404 -14.76983529 15.76013113 -10.62890625 10.8515625 C-7.28319445 7.04852319 -3.61683123 3.54301835 0 0 Z " fill="#E4AB70" transform="translate(77,102)"/>
<path d="M0 0 C2.64 0 5.28 0 8 0 C7.67 6.6 7.34 13.2 7 20 C8.65 20 10.3 20 12 20 C12.33 19.34 12.66 18.68 13 18 C13 18.66 13 19.32 13 20 C13.99 20 14.98 20 16 20 C16 20.66 16 21.32 16 22 C10.72 22 5.44 22 0 22 C0 21.34 0 20.68 0 20 C0.66 20 1.32 20 2 20 C2 17.36 2 14.72 2 12 C0.02 12 -1.96 12 -4 12 C-4 14.64 -4 17.28 -4 20 C-3.34 20 -2.68 20 -2 20 C-2 20.66 -2 21.32 -2 22 C-4.97 22 -7.94 22 -11 22 C-11 21.34 -11 20.68 -11 20 C-10.34 20 -9.68 20 -9 20 C-9 14.39 -9 8.78 -9 3 C-9.66 3 -10.32 3 -11 3 C-11 4.65 -11 6.3 -11 8 C-11.66 8 -12.32 8 -13 8 C-13.495 6.02 -13.495 6.02 -14 4 C-15.32 3.67 -16.64 3.34 -18 3 C-18 8.94 -18 14.88 -18 21 C-19.32 21 -20.64 21 -22 21 C-22 15.06 -22 9.12 -22 3 C-23.65 3.33 -25.3 3.66 -27 4 C-27 4.99 -27 5.98 -27 7 C-27.66 7 -28.32 7 -29 7 C-29 5.68 -29 4.36 -29 3 C-29.66 3 -30.32 3 -31 3 C-30.94779297 4.55460938 -30.94779297 4.55460938 -30.89453125 6.140625 C-30.86638518 7.51040042 -30.83908589 8.88019341 -30.8125 10.25 C-30.78736328 10.93191406 -30.76222656 11.61382812 -30.73632812 12.31640625 C-30.69070052 15.44950188 -30.82212448 17.6630009 -32.296875 20.45703125 C-34 22 -34 22 -37.4375 22.4375 C-41.23881637 21.97067167 -42.47052438 21.79950679 -45 19 C-45.29561076 16.12961948 -45.37943016 13.66245255 -45.25 10.8125 C-45.23195312 10.06291016 -45.21390625 9.31332031 -45.1953125 8.54101562 C-45.14824109 6.6934629 -45.07649766 4.84656841 -45 3 C-45.66 3 -46.32 3 -47 3 C-47 2.34 -47 1.68 -47 1 C-44.125 0.875 -44.125 0.875 -41 1 C-39 3 -39 3 -38.77294922 4.87939453 C-38.78865967 5.99483643 -38.78865967 5.99483643 -38.8046875 7.1328125 C-38.81435547 8.34130859 -38.81435547 8.34130859 -38.82421875 9.57421875 C-38.84097656 10.41597656 -38.85773438 11.25773438 -38.875 12.125 C-38.88402344 12.97449219 -38.89304687 13.82398438 -38.90234375 14.69921875 C-38.92594353 16.79959884 -38.96181517 18.89983444 -39 21 C-37.35 20.67 -35.7 20.34 -34 20 C-33.67 14.39 -33.34 8.78 -33 3 C-33.66 3 -34.32 3 -35 3 C-35 2.34 -35 1.68 -35 1 C-24.44 1 -13.88 1 -3 1 C-2.505 1.99 -2.505 1.99 -2 3 C-1.34 3 -0.68 3 0 3 C0 2.01 0 1.02 0 0 Z " fill="#1C150F" transform="translate(106,184)"/>
<path d="M0 0 C1.24112549 0.01571045 1.24112549 0.01571045 2.50732422 0.03173828 C3.85117188 0.04140625 3.85117188 0.04140625 5.22216797 0.05126953 C6.62789062 0.07640625 6.62789062 0.07640625 8.06201172 0.10205078 C9.47933594 0.11558594 9.47933594 0.11558594 10.92529297 0.12939453 C13.26278464 0.15300556 15.59977295 0.18593562 17.93701172 0.22705078 C18.43201172 2.70205078 18.43201172 2.70205078 18.93701172 5.22705078 C18.27701172 4.56705078 17.61701172 3.90705078 16.93701172 3.22705078 C14.95701172 2.89705078 12.97701172 2.56705078 10.93701172 2.22705078 C10.93701172 7.83705078 10.93701172 13.44705078 10.93701172 19.22705078 C12.91701172 18.89705078 14.89701172 18.56705078 16.93701172 18.22705078 C18.3733887 16.2754196 18.3733887 16.2754196 18.93701172 14.22705078 C19.59701172 14.22705078 20.25701172 14.22705078 20.93701172 14.22705078 C20.93701172 14.88705078 20.93701172 15.54705078 20.93701172 16.22705078 C23.90042886 17.87339364 26.56877427 18.78386164 29.93701172 19.22705078 C30.59701172 18.89705078 31.25701172 18.56705078 31.93701172 18.22705078 C32.59256291 15.69971843 32.59256291 15.69971843 32.93701172 13.22705078 C30.91878255 12.77132161 28.90055339 12.31559245 26.88232422 11.85986328 C24.93701172 11.22705078 24.93701172 11.22705078 22.93701172 9.22705078 C22.81201172 6.10205078 22.81201172 6.10205078 22.93701172 3.22705078 C23.59701172 4.21705078 24.25701172 5.20705078 24.93701172 6.22705078 C27.08041798 7.41387996 27.08041798 7.41387996 29.49951172 8.35205078 C33.86344224 10.1534813 33.86344224 10.1534813 34.93701172 11.22705078 C35.21951397 14.40520107 35.18205681 16.64506868 33.93701172 19.60205078 C31.22063831 21.80910417 29.27338862 21.50819841 25.87451172 21.27001953 C23.71651598 21.1132248 23.71651598 21.1132248 20.93701172 22.22705078 C19.01607996 22.24288801 17.09428844 22.19362688 15.17529297 22.10595703 C14.05703125 22.05761719 12.93876953 22.00927734 11.78662109 21.95947266 C10.619375 21.90339844 9.45212891 21.84732422 8.24951172 21.78955078 C7.07066406 21.73734375 5.89181641 21.68513672 4.67724609 21.63134766 C1.76357078 21.50158884 -1.14976907 21.36661946 -4.06298828 21.22705078 C-4.06298828 17.92705078 -4.06298828 14.62705078 -4.06298828 11.22705078 C-5.05298828 14.52705078 -6.04298828 17.82705078 -7.06298828 21.22705078 C-11.06298828 19.22705078 -11.06298828 19.22705078 -12.06298828 18.22705078 C-12.39298828 18.88705078 -12.72298828 19.54705078 -13.06298828 20.22705078 C-14.38298828 19.89705078 -15.70298828 19.56705078 -17.06298828 19.22705078 C-16.56798828 10.31705078 -16.56798828 10.31705078 -16.06298828 1.22705078 C-14.74298828 1.22705078 -13.42298828 1.22705078 -12.06298828 1.22705078 C-11.5573892 2.66259103 -11.05871338 4.10057098 -10.56298828 5.53955078 C-10.28455078 6.34005859 -10.00611328 7.14056641 -9.71923828 7.96533203 C-9.06298828 10.22705078 -9.06298828 10.22705078 -9.06298828 13.22705078 C-8.40298828 13.22705078 -7.74298828 13.22705078 -7.06298828 13.22705078 C-6.86962891 12.45619141 -6.67626953 11.68533203 -6.47705078 10.89111328 C-6.21666016 9.88822266 -5.95626953 8.88533203 -5.68798828 7.85205078 C-5.30513672 6.35544922 -5.30513672 6.35544922 -4.91455078 4.82861328 C-3.9286482 1.81663567 -3.28765258 0.36183632 0 0 Z " fill="#13100C" transform="translate(238.06298828125,184.77294921875)"/>
<path d="M0 0 C3.485424 0.43722805 5.03775759 1.72087322 7.35546875 4.28125 C7.97357422 4.95414062 8.59167969 5.62703125 9.22851562 6.3203125 C9.87498047 7.03960937 10.52144531 7.75890625 11.1875 8.5 C12.53397841 9.96982986 13.8816289 11.43858689 15.23046875 12.90625 C15.87935059 13.61523438 16.52823242 14.32421875 17.19677734 15.0546875 C19.40284632 17.43458969 21.683634 19.72764095 24 22 C27.23093192 25.18270906 30.2171909 28.49684958 33.16015625 31.9453125 C36.04080344 35.16234099 39.16063705 38.13056038 42.27734375 41.1171875 C44 43 44 43 44 45 C42.31848197 45.21893182 40.62841453 45.37255557 38.9375 45.5 C37.99777344 45.5928125 37.05804688 45.685625 36.08984375 45.78125 C31.17474175 44.53849349 29.08735752 40.83729127 26 37 C24.74852201 35.62758975 23.48275946 34.26807063 22.203125 32.921875 C21.55923828 32.24116943 20.91535156 31.56046387 20.25195312 30.85913086 C19.59130859 30.16311768 18.93066406 29.46710449 18.25 28.75 C11.76653789 21.89266629 5.34940568 14.98165583 -1 8 C-3.88699029 8.33509709 -4.90744277 8.90221777 -6.9375 11.046875 C-7.618125 11.93890625 -8.29875 12.8309375 -9 13.75 C-12.49752695 18.19093882 -16.12614168 22.38460172 -20 26.5 C-24.66445915 31.4615915 -28.98260025 36.56975675 -33.16015625 41.953125 C-35 44 -35 44 -38 45 C-36.49993609 41.55220914 -34.49590738 39.17639467 -31.9375 36.4375 C-28.68892508 32.89831774 -25.57531784 29.30439832 -22.5625 25.5625 C-18.6629166 20.74416658 -14.56632425 16.15158425 -10.37109375 11.58984375 C-7.6235005 8.58876579 -4.94321378 5.53452883 -2.27734375 2.4609375 C-1.54167701 1.61953273 -0.79030613 0.79030613 0 0 Z " fill="#F1EDEA" transform="translate(205,93)"/>
<path d="M0 0 C2.64 0.33 5.28 0.66 8 1 C8.33 2.65 8.66 4.3 9 6 C9.70125 5.195625 10.4025 4.39125 11.125 3.5625 C14.32427468 0.71097257 15.75459508 0 20 0 C23.52906067 1.60411848 24.82772908 2.74159362 27 6 C27.68094953 9.76314216 27.72715329 13.40285973 26.125 16.921875 C24.9375 18.5625 24.9375 18.5625 22 21 C18.04220351 21.62491523 15.99136114 21.61006839 12.5625 19.5 C12.046875 19.005 11.53125 18.51 11 18 C10.1028125 18.4640625 10.1028125 18.4640625 9.1875 18.9375 C4.11889778 21.39939251 -0.62609134 21.79130289 -6 20 C-6 18.35 -6 16.7 -6 15 C-5.34 15 -4.68 15 -4 15 C-4 15.66 -4 16.32 -4 17 C-3.34 17 -2.68 17 -2 17 C-2 17.66 -2 18.32 -2 19 C-0.02 18.67 1.96 18.34 4 18 C4.33 16.35 4.66 14.7 5 13 C4.36191406 12.79503906 3.72382812 12.59007812 3.06640625 12.37890625 C2.24011719 12.10949219 1.41382813 11.84007812 0.5625 11.5625 C-0.26121094 11.29566406 -1.08492187 11.02882812 -1.93359375 10.75390625 C-4 10 -4 10 -5 9 C-5.04080783 7.00041636 -5.04254356 4.99954746 -5 3 C-3.68 2.34 -2.36 1.68 -1 1 C-1.33 2.65 -1.66 4.3 -2 6 C-0.35 6.33 1.3 6.66 3 7 C3.33 5.35 3.66 3.7 4 2 C2.68 1.34 1.36 0.68 0 0 Z " fill="#120F0B" transform="translate(30,185)"/>
<path d="M0 0 C3.13440333 0.57691253 4.76285719 1.39132388 6.98828125 3.66015625 C7.52646484 4.20285156 8.06464844 4.74554688 8.61914062 5.3046875 C9.17794922 5.88476562 9.73675781 6.46484375 10.3125 7.0625 C10.89064453 7.65160156 11.46878906 8.24070312 12.06445312 8.84765625 C15.69613959 12.57330086 19.21437372 16.37510472 22.5625 20.359375 C23.95618853 21.94999778 25.43141799 23.33486623 27 24.75 C29 27 29 27 29.125 29.1875 C27.55397158 31.71860135 25.78338033 32.14357528 23 33 C22.62746094 32.13632813 22.25492188 31.27265625 21.87109375 30.3828125 C19.72678313 26.50604215 17.2418811 23.90335082 14.0625 20.875 C13.53720703 20.36324219 13.01191406 19.85148437 12.47070312 19.32421875 C11.45231181 18.33259366 10.43110986 17.34384456 9.40673828 16.35839844 C7.58107125 14.59546692 5.78805567 12.80098138 4 11 C-5.58912628 18.32453275 -5.58912628 18.32453275 -12 28 C-13.9375 28.75 -13.9375 28.75 -16 29 C-16.66 28.67 -17.32 28.34 -18 28 C-17.690625 27.401875 -17.38125 26.80375 -17.0625 26.1875 C-15.89790296 23.91043228 -15.89790296 23.91043228 -15 21 C-15.66 21 -16.32 21 -17 21 C-16.42163785 17.47257313 -15.2076803 15.85855486 -12.65625 13.3984375 C-11.98722656 12.74359375 -11.31820312 12.08875 -10.62890625 11.4140625 C-9.92636719 10.74117187 -9.22382812 10.06828125 -8.5 9.375 C-7.11250656 8.03078617 -5.726989 6.6845289 -4.34375 5.3359375 C-3.72693359 4.74345215 -3.11011719 4.1509668 -2.47460938 3.54052734 C-0.9012493 2.04867922 -0.9012493 2.04867922 0 0 Z " fill="#19110A" transform="translate(119,64)"/>
<path d="M0 0 C2.97117474 1.31537837 4.83021526 2.64378666 6.91796875 5.125 C7.44559814 5.74415283 7.97322754 6.36330566 8.5168457 7.0012207 C9.06816162 7.66081787 9.61947754 8.32041504 10.1875 9 C11.35073537 10.36919272 12.51480013 11.73768125 13.6796875 13.10546875 C14.24655273 13.77368652 14.81341797 14.4419043 15.39746094 15.13037109 C17.48775773 17.56905068 19.64376634 19.94351741 21.8125 22.3125 C27.21428913 28.27137972 32.19922192 34.54987485 37 41 C35.02 41.33 33.04 41.66 31 42 C30.15501953 40.67548828 30.15501953 40.67548828 29.29296875 39.32421875 C27.2212203 36.21887072 24.87156608 33.53640125 22.3125 30.8125 C18.83712695 27.0560306 15.51740178 23.23966369 12.3125 19.25 C8.78798162 14.87884465 5.08578736 10.84931092 1 7 C-3.08128672 8.61692982 -5.80603092 11.54278929 -8.8125 14.625 C-9.3480249 15.16697021 -9.8835498 15.70894043 -10.43530273 16.26733398 C-13.80895197 19.70640165 -17.01973371 23.24410301 -20.13671875 26.91796875 C-23.06762579 30.19296551 -26.21158848 33.2532217 -29.35766602 36.32055664 C-32.02009579 38.89926702 -32.02009579 38.89926702 -34 42 C-35.98 42 -37.96 42 -40 42 C-35.8809129 37.13935259 -31.67033485 32.39740581 -27.3125 27.75 C-26.68400146 27.07904297 -26.05550293 26.40808594 -25.40795898 25.71679688 C-17.13775052 16.94915484 -8.56669878 8.4764353 0 0 Z " fill="#211810" transform="translate(78,96)"/>
<path d="M0 0 C4.50997834 1.12749459 6.366713 3.01448028 9.4375 6.25 C9.90220703 6.72824219 10.36691406 7.20648438 10.84570312 7.69921875 C12.2346079 9.12880275 13.61733414 10.56438098 15 12 C15.86238281 12.8559375 16.72476563 13.711875 17.61328125 14.59375 C19.75227498 16.75024777 21.75656767 18.96002402 23.75 21.25 C29.00996125 27.16298365 34.65295488 32.68049729 40.32324219 38.19824219 C41.04157227 38.9049707 41.75990234 39.61169922 42.5 40.33984375 C43.1496875 40.97269287 43.799375 41.60554199 44.46875 42.25756836 C46 44 46 44 47 47 C46.34 47 45.68 47 45 47 C45 46.34 45 45.68 45 45 C43.02463255 45.34786708 43.02463255 45.34786708 41 46 C40.505 46.99 40.505 46.99 40 48 C29.3727627 37.54571955 29.3727627 37.54571955 25.5625 33.0625 C22.04816908 28.9369811 18.20726438 25.17615735 14.35205078 21.3737793 C11.58703503 18.6328796 8.93565628 15.86654215 6.4375 12.875 C4.13408751 9.89010477 4.13408751 9.89010477 1 8 C1.99 8 2.98 8 4 8 C3.67 6.35 3.34 4.7 3 3 C2.01 2.67 1.02 2.34 0 2 C-0.103125 2.639375 -0.20625 3.27875 -0.3125 3.9375 C-0.539375 4.618125 -0.76625 5.29875 -1 6 C-1.99 6.33 -2.98 6.66 -4 7 C-4.33 7.99 -4.66 8.98 -5 10 C-5.99 9.67 -6.98 9.34 -8 9 C-5.36 6.03 -2.72 3.06 0 0 Z " fill="#1E170F" transform="translate(204,84)"/>
<path d="M0 0 C10.4396137 -0.36845695 10.4396137 -0.36845695 12.84765625 1.21484375 C14.35858642 3.55550507 14.27098874 4.98480155 14.125 7.75 C13.98794119 11.99882319 14.27261722 15.81754902 15 20 C13.35 20 11.7 20 10 20 C10 18.02 10 16.04 10 14 C9.01 14.33 8.02 14.66 7 15 C6.26676204 17.01508358 6.26676204 17.01508358 6 19 C6.66 19 7.32 19 8 19 C8 19.66 8 20.32 8 21 C2.72 21 -2.56 21 -8 21 C-8.33 19.02 -8.66 17.04 -9 15 C-10.98 15 -12.96 15 -15 15 C-15.33 15.66 -15.66 16.32 -16 17 C-16.125 10.375 -16.125 10.375 -15 7 C-14.34 7 -13.68 7 -13 7 C-12.67 5.35 -12.34 3.7 -12 2 C-11.34 2 -10.68 2 -10 2 C-9.32815382 4.10251861 -8.66269032 6.20707763 -8 8.3125 C-7.62875 9.48425781 -7.2575 10.65601563 -6.875 11.86328125 C-6 15 -6 15 -6 18 C-3.69 18.33 -1.38 18.66 1 19 C0.505 9.595 0.505 9.595 0 0 Z " fill="#312A22" transform="translate(135,185)"/>
<path d="M0 0 C3.4203866 1.17013226 3.91540482 1.87310723 6 5 C6.1953125 8.35546875 6.1953125 8.35546875 6.125 12.1875 C6.10695312 13.45980469 6.08890625 14.73210937 6.0703125 16.04296875 C6.04710937 17.01878906 6.02390625 17.99460938 6 19 C5.04287109 18.98259766 5.04287109 18.98259766 4.06640625 18.96484375 C3.24011719 18.95582031 2.41382813 18.94679687 1.5625 18.9375 C0.73878906 18.92589844 -0.08492187 18.91429687 -0.93359375 18.90234375 C-2.99163938 18.76732652 -2.99163938 18.76732652 -4 20 C-5.51928038 20.07179964 -7.04167482 20.08392007 -8.5625 20.0625 C-9.38878906 20.05347656 -10.21507812 20.04445312 -11.06640625 20.03515625 C-12.02353516 20.01775391 -12.02353516 20.01775391 -13 20 C-14.60725635 16.78548731 -14.05748185 13.56387464 -14 10 C-13.34 10 -12.68 10 -12 10 C-12.0825 9.0925 -12.165 8.185 -12.25 7.25 C-12 4 -12 4 -10.5 1.625 C-6.98085573 -0.66244378 -4.08622864 -0.56332782 0 0 Z " fill="#3F352B" transform="translate(206,113)"/>
<path d="M0 0 C1.640625 1.46875 1.640625 1.46875 3.25 3.5 C6.92166875 7.94671183 10.88584104 11.96465635 15 16 C18.91051697 19.83560285 22.76277023 23.66234864 26.328125 27.82421875 C30.86229588 33.0879228 35.81799097 37.9249543 40.75 42.8125 C41.70466353 43.76213215 42.65909201 44.71200066 43.61328125 45.66210938 C45.35529186 47.3954471 47.09833303 49.12775023 48.84277344 50.85864258 C49.5546582 51.56529053 50.26654297 52.27193848 51 53 C51.88606934 53.82310669 51.88606934 53.82310669 52.79003906 54.6628418 C54 56 54 56 54 58 C50.9802953 58.29256654 49.49417209 58.3643308 47.0078125 56.53125 C46.38648438 55.8609375 45.76515625 55.190625 45.125 54.5 C44.50882813 53.8503125 43.89265625 53.200625 43.2578125 52.53125 C41.99545166 51.11600809 40.73866304 49.69556163 39.50341797 48.2565918 C34.85849411 42.86255157 29.93441723 37.81737957 24.875 32.8125 C24.08996094 32.03197266 23.30492187 31.25144531 22.49609375 30.44726562 C19.41240342 27.38177582 16.32464883 24.32052776 13.23046875 21.265625 C10.88774018 18.88597076 8.65566428 16.43341702 6.4375 13.9375 C4.96720488 12.28373652 3.48839089 10.63749624 2 9 C1.33097656 8.23816406 0.66195312 7.47632812 -0.02734375 6.69140625 C-2.07301617 4.56605656 -2.07301617 4.56605656 -6 5 C-6 4.01 -6 3.02 -6 2 C-6.99 1.67 -7.98 1.34 -9 1 C-5.846632 0.29925156 -3.27275026 0 0 0 Z " fill="#DCA46A" transform="translate(209,80)"/>
<path d="M0 0 C10.71989529 -0.70680628 10.71989529 -0.70680628 13.91015625 1.0546875 C16.38115171 3.72019281 17.32487473 6.46956735 17.5625 10 C17.28434039 14.52878612 15.19549104 17.80450896 12 21 C7.99779347 21.14355117 4.00558317 21.04216403 0 21 C0 14.07 0 7.14 0 0 Z " fill="#37312A" transform="translate(153,185)"/>
<path d="M0 0 C1.24546405 2.49092811 0.7767578 3.41080733 0 6 C0.99 5.34 1.98 4.68 3 4 C7.17093474 3.45932327 9.29917198 3.58248543 12.9375 5.75 C16.01719026 10.60284527 15.60238608 15.38920393 15 21 C14 22 14 22 10.40234375 22.09765625 C8.91402745 22.09191272 7.42573704 22.07889891 5.9375 22.0625 C3.318125 22.041875 0.69875 22.02125 -2 22 C-2 16.72 -2 11.44 -2 6 C-3.32 6.33 -4.64 6.66 -6 7 C-4.02 4.69 -2.04 2.38 0 0 Z " fill="#3C2916" transform="translate(74,114)"/>
<path d="M0 0 C1.87109375 0.578125 1.87109375 0.578125 4.37109375 3.078125 C7.19081572 9.65747626 6.04476603 15.05710816 3.87109375 21.578125 C-3.33543306 23.04385927 -3.33543306 23.04385927 -7.00390625 20.890625 C-10.63173631 16.94269229 -11.67594683 14.14398782 -11.5 8.6171875 C-10.38784327 2.50617895 -6.07493357 -0.50528748 0 0 Z " fill="#0C0A07" transform="translate(211.12890625,184.421875)"/>
<path d="M0 0 C2.875 -0.125 2.875 -0.125 6 0 C8 2 8 2 8.22705078 3.87939453 C8.21134033 4.99483643 8.21134033 4.99483643 8.1953125 6.1328125 C8.18564453 7.34130859 8.18564453 7.34130859 8.17578125 8.57421875 C8.15902344 9.41597656 8.14226562 10.25773438 8.125 11.125 C8.11597656 11.97449219 8.10695313 12.82398438 8.09765625 13.69921875 C8.07405647 15.79959884 8.03818483 17.89983444 8 20 C9.65 19.67 11.3 19.34 13 19 C13.33 13.39 13.66 7.78 14 2 C13.34 2 12.68 2 12 2 C12 1.34 12 0.68 12 0 C15.64581687 -0.02887512 19.29160463 -0.04675585 22.9375 -0.0625 C23.97841797 -0.07087891 25.01933594 -0.07925781 26.09179688 -0.08789062 C27.08115234 -0.09111328 28.07050781 -0.09433594 29.08984375 -0.09765625 C30.46450806 -0.10551147 30.46450806 -0.10551147 31.86694336 -0.11352539 C34 0 34 0 35 1 C35.04063832 2.66617115 35.042721 4.33388095 35 6 C34.34 5.01 33.68 4.02 33 3 C31.68 2.67 30.36 2.34 29 2 C29 7.94 29 13.88 29 20 C27.68 20 26.36 20 25 20 C25 14.06 25 8.12 25 2 C23.35 2.33 21.7 2.66 20 3 C20 3.99 20 4.98 20 6 C19.34 6 18.68 6 18 6 C18 4.68 18 3.36 18 2 C17.34 2 16.68 2 16 2 C16.05220703 3.55460938 16.05220703 3.55460938 16.10546875 5.140625 C16.13361482 6.51040042 16.16091411 7.88019341 16.1875 9.25 C16.21263672 9.93191406 16.23777344 10.61382812 16.26367188 11.31640625 C16.30929948 14.44950188 16.17787552 16.6630009 14.703125 19.45703125 C13 21 13 21 9.5625 21.4375 C5.76118363 20.97067167 4.52947562 20.79950679 2 18 C1.70438924 15.12961948 1.62056984 12.66245255 1.75 9.8125 C1.76804688 9.06291016 1.78609375 8.31332031 1.8046875 7.54101562 C1.85175891 5.6934629 1.92350234 3.84656841 2 2 C1.34 2 0.68 2 0 2 C0 1.34 0 0.68 0 0 Z " fill="#2F251B" transform="translate(59,185)"/>
<path d="M0 0 C0.66 0 1.32 0 2 0 C2.33 2.97 2.66 5.94 3 9 C4.32 9.33 5.64 9.66 7 10 C8.42366111 10.50139889 9.84062729 11.02224046 11.25 11.5625 C11.95640625 11.83191406 12.6628125 12.10132813 13.390625 12.37890625 C13.92171875 12.58386719 14.4528125 12.78882813 15 13 C15.1875 15.375 15.1875 15.375 15 18 C12 20 12 20 9.5625 19.8125 C6.81558819 18.94152796 5.10917801 17.9529426 3 16 C3 15.34 3 14.68 3 14 C0.48916886 15.25541557 0.12874554 16.50063488 -1 19 C-2.98 19 -4.96 19 -7 19 C-7 13.39 -7 7.78 -7 2 C-5.02 2 -3.04 2 -1 2 C-0.67 1.67 -0.34 1.34 0 1 C0 0.67 0 0.34 0 0 Z " fill="#110D0A" transform="translate(256,185)"/>
<path d="M0 0 C4.29 0 8.58 0 13 0 C13.33 1.65 13.66 3.3 14 5 C13.34 4.34 12.68 3.68 12 3 C9.03 2.505 9.03 2.505 6 2 C6 7.61 6 13.22 6 19 C7.98 18.67 9.96 18.34 12 18 C13.43637698 16.04836882 13.43637698 16.04836882 14 14 C14.66 14 15.32 14 16 14 C16 14.66 16 15.32 16 16 C18.96341714 17.64634286 21.63176256 18.55681086 25 19 C25.66 18.67 26.32 18.34 27 18 C27.65555119 15.47266765 27.65555119 15.47266765 28 13 C25.98177083 12.54427083 23.96354167 12.08854167 21.9453125 11.6328125 C20 11 20 11 18 9 C17.875 5.875 17.875 5.875 18 3 C18.99 4.485 18.99 4.485 20 6 C22.14340627 7.18682918 22.14340627 7.18682918 24.5625 8.125 C28.92643052 9.92643052 28.92643052 9.92643052 30 11 C30.28250225 14.17815029 30.24504509 16.4180179 29 19.375 C26.2836266 21.58205339 24.3363769 21.28114762 20.9375 21.04296875 C18.77950426 20.88617402 18.77950426 20.88617402 16 22 C13.25392224 21.91232913 10.54908492 21.77043265 7.8125 21.5625 C7.06291016 21.51029297 6.31332031 21.45808594 5.54101562 21.40429688 C3.69362918 21.27486216 1.84675629 21.13813482 0 21 C0 20.34 0 19.68 0 19 C0.66 19 1.32 19 2 19 C2 13.39 2 7.78 2 2 C1.34 2 0.68 2 0 2 C0 1.34 0 0.68 0 0 Z " fill="#988D81" transform="translate(243,185)"/>
<path d="M0 0 C0.8146875 0.19295654 1.629375 0.38591309 2.46875 0.5847168 C7.58442758 1.89625077 11.65017812 3.75231186 16.125 6.5625 C12.90807855 7.63480715 11.88477701 7.49944604 8.6875 6.75 C7.54474609 6.49283203 7.54474609 6.49283203 6.37890625 6.23046875 C4.125 5.5625 4.125 5.5625 2.37719727 4.58862305 C-6.90975565 0.3573967 -19.23905117 1.18216677 -29.25 0.9375 C-30.58335439 0.89916281 -31.9166882 0.86010312 -33.25 0.8203125 C-36.45820577 0.72732103 -39.66642401 0.64147836 -42.875 0.5625 C-42.875 0.2325 -42.875 -0.0975 -42.875 -0.4375 C-41.05162109 -0.52837891 -41.05162109 -0.52837891 -39.19140625 -0.62109375 C-37.60675772 -0.70548332 -36.02212298 -0.7901321 -34.4375 -0.875 C-33.63505859 -0.91431641 -32.83261719 -0.95363281 -32.00585938 -0.99414062 C-28.12260439 -0.8429296 -28.12260439 -0.8429296 -24.875 -2.4375 C-43.025 -2.4375 -61.175 -2.4375 -79.875 -2.4375 C-79.875 -2.7675 -79.875 -3.0975 -79.875 -3.4375 C-52.82430804 -6.92791187 -26.54230757 -6.34930754 0 0 Z " fill="#E4DCD4" transform="translate(272.875,145.4375)"/>
<path d="M0 0 C2.64 0.33 5.28 0.66 8 1 C8.33 2.65 8.66 4.3 9 6 C9.45375 5.505 9.9075 5.01 10.375 4.5 C12 3 12 3 14 3 C14 7.95 14 12.9 14 18 C12.35 18 10.7 18 9 18 C8.21625 18.495 7.4325 18.99 6.625 19.5 C3.22975262 21.44014136 0.85446329 21.2855158 -3 21 C-3.99 20.67 -4.98 20.34 -6 20 C-6 18.35 -6 16.7 -6 15 C-5.34 15 -4.68 15 -4 15 C-4 15.66 -4 16.32 -4 17 C-3.34 17 -2.68 17 -2 17 C-2 17.66 -2 18.32 -2 19 C-0.02 18.67 1.96 18.34 4 18 C4.33 16.35 4.66 14.7 5 13 C4.36191406 12.79503906 3.72382812 12.59007812 3.06640625 12.37890625 C2.24011719 12.10949219 1.41382813 11.84007812 0.5625 11.5625 C-0.26121094 11.29566406 -1.08492187 11.02882812 -1.93359375 10.75390625 C-4 10 -4 10 -5 9 C-5.04080783 7.00041636 -5.04254356 4.99954746 -5 3 C-3.68 2.34 -2.36 1.68 -1 1 C-1.33 2.65 -1.66 4.3 -2 6 C-0.35 6.33 1.3 6.66 3 7 C3.33 5.35 3.66 3.7 4 2 C2.68 1.34 1.36 0.68 0 0 Z " fill="#2A241E" transform="translate(30,185)"/>
<path d="M0 0 C2.31 0 4.62 0 7 0 C7.33 0.66 7.66 1.32 8 2 C7.34 2 6.68 2 6 2 C6 4.31 6 6.62 6 9 C7.98 9 9.96 9 12 9 C12 6.36 12 3.72 12 1 C12.99 1 13.98 1 15 1 C15 7.27 15 13.54 15 20 C14.01 20 13.02 20 12 20 C12 17.03 12 14.06 12 11 C10.02 11 8.04 11 6 11 C6 13.64 6 16.28 6 19 C6.66 19 7.32 19 8 19 C8 19.66 8 20.32 8 21 C5.125 21.125 5.125 21.125 2 21 C0 19 0 19 -0.22705078 17.02880859 C-0.21657715 16.24328613 -0.20610352 15.45776367 -0.1953125 14.6484375 C-0.18886719 13.79765625 -0.18242187 12.946875 -0.17578125 12.0703125 C-0.15902344 11.18085938 -0.14226562 10.29140625 -0.125 9.375 C-0.11597656 8.4778125 -0.10695312 7.580625 -0.09765625 6.65625 C-0.0740497 4.43723414 -0.0411231 2.21874923 0 0 Z " fill="#736D67" transform="translate(180,185)"/>
<path d="M0 0 C1.75070517 0.11470137 3.50057536 0.24219028 5.25 0.375 C6.22453125 0.44460937 7.1990625 0.51421875 8.203125 0.5859375 C11 1 11 1 12.73339844 1.95800781 C23.29926157 6.81530034 38.54939987 5.40247822 50 5.625 C51.66147558 5.66332176 53.32293433 5.70238079 54.984375 5.7421875 C58.98944123 5.83658214 62.99459887 5.92114847 67 6 C67 6.33 67 6.66 67 7 C57.1 7.66 47.2 8.32 37 9 C37 9.66 37 10.32 37 11 C27.40036924 11.55382485 18.65873043 9.03756121 10.04296875 4.91015625 C8.04255849 4.01896009 6.11758815 3.42050445 4 2.875 C3.01 2.58625 2.02 2.2975 1 2 C0.67 1.34 0.34 0.68 0 0 Z " fill="#BDB3A9" transform="translate(8,157)"/>
<path d="M0 0 C3.125 -0.1875 3.125 -0.1875 6 0 C2.88882474 3.1143856 -0.22815173 6.22275971 -3.3510437 9.32539368 C-5.60295071 11.56374023 -7.85204381 13.80490615 -10.10107422 16.04614258 C-11.27920821 17.21925013 -12.45823848 18.39145828 -13.63818359 19.56274414 C-22.38382028 28.22387163 -22.38382028 28.22387163 -30.61279297 37.37182617 C-32.93949107 40.10268672 -35.34266599 42.58424181 -38 45 C-38.99 45 -39.98 45 -41 45 C-39.41060574 41.06785699 -36.83657498 38.66979654 -33.8125 35.75 C-30.64886139 32.65980391 -27.53900515 29.57274843 -24.6875 26.1875 C-18.36329747 18.77079533 -11.16470114 12.06609401 -4.1953125 5.26171875 C-1.87285669 3.005895 -1.87285669 3.005895 0 0 Z " fill="#D4C9BE" transform="translate(76,93)"/>
<path d="M0 0 C0.33 0.66 0.66 1.32 1 2 C0.67 2.99 0.34 3.98 0 5 C0.99 4.67 1.98 4.34 3 4 C2.2460719 8.46404796 -0.18549203 10.72429706 -3.1796875 13.9609375 C-4.76954263 15.74184818 -6.04056686 17.53101123 -7.375 19.5 C-10.32954604 22.31385337 -10.92844511 22.36288126 -14.8125 22.375 C-16.21064132 22.27920565 -17.6081797 22.16374356 -19 22 C-17.61950251 18.88317581 -16.03207315 16.80407751 -13.59375 14.43359375 C-12.93246094 13.78326172 -12.27117188 13.13292969 -11.58984375 12.46289062 C-10.90019531 11.79451172 -10.21054687 11.12613281 -9.5 10.4375 C-8.13317272 9.10516275 -6.7684969 7.77061385 -5.40625 6.43359375 C-4.80103516 5.84634521 -4.19582031 5.25909668 -3.57226562 4.65405273 C-1.79696517 2.88091814 -1.79696517 2.88091814 0 0 Z " fill="#E5AC71" transform="translate(63,116)"/>
<path d="M0 0 C0.99 0 1.98 0 3 0 C3 2.64 3 5.28 3 8 C5.31 8 7.62 8 10 8 C10 5.36 10 2.72 10 0 C10.99 0 11.98 0 13 0 C13 6.27 13 12.54 13 19 C12.01 19 11.02 19 10 19 C10 16.03 10 13.06 10 10 C8.02 10 6.04 10 4 10 C4.33 12.97 4.66 15.94 5 19 C3.35 19 1.7 19 0 19 C0 12.73 0 6.46 0 0 Z " fill="#A2988E" transform="translate(98,186)"/>
<path d="M0 0 C1.37020997 4.11062991 1.06276637 7.66912062 1 12 C-2.96 12 -6.92 12 -11 12 C-11.42981502 6.06855277 -11.42981502 6.06855277 -11 3 C-7.63008402 -0.27080081 -4.55343759 -0.31768169 0 0 Z " fill="#3F3123" transform="translate(128,81)"/>
<path d="M0 0 C4.03721561 1.56583596 6.47070582 4.44173865 9.25 7.625 C9.70890625 8.140625 10.1678125 8.65625 10.640625 9.1875 C11.76592296 10.4534602 12.88372177 11.72607942 14 13 C11.50935112 13.68707555 9.62113708 14 7 14 C6.5875 13.505 6.175 13.01 5.75 12.5 C3.00310571 10.14551918 0.48505054 10.75106782 -3 11 C-3.99 11.33 -4.98 11.66 -6 12 C-5.73781251 7.5428126 -5.42288711 5.48477302 -2.4375 2.0625 C-1.633125 1.381875 -0.82875 0.70125 0 0 Z " fill="#0D0803" transform="translate(80,108)"/>
<path d="M0 0 C2.31 0.33 4.62 0.66 7 1 C8.29004296 3.58008592 8.20410224 5.55741574 8.25 8.4375 C8.28867188 9.88962891 8.28867188 9.88962891 8.328125 11.37109375 C8 14 8 14 6.796875 15.84765625 C5 17 5 17 0 17 C0 11.39 0 5.78 0 0 Z " fill="#070605" transform="translate(159,187)"/>
<path d="M0 0 C2.58661236 0.00315707 5.17207302 -0.02038572 7.75854492 -0.0456543 C18.74375253 -0.08523851 29.04842386 1.01268952 39.7878418 3.31567383 C39.7878418 3.64567383 39.7878418 3.97567383 39.7878418 4.31567383 C38.73169678 4.24421143 37.67555176 4.17274902 36.58740234 4.09912109 C22.25568877 3.20149439 7.95528385 3.20066421 -6.3996582 3.25317383 C-8.81827706 3.25820349 -11.23689694 3.26276378 -13.65551758 3.2668457 C-19.50775393 3.27772446 -25.35995108 3.29434418 -31.2121582 3.31567383 C-31.2121582 2.98567383 -31.2121582 2.65567383 -31.2121582 2.31567383 C-20.75471365 0.4305066 -10.5983996 -0.02694255 0 0 Z " fill="#5B5044" transform="translate(236.212158203125,145.684326171875)"/>
<path d="M0 0 C6 2 6 2 8 5 C8.1953125 8.13671875 8.1953125 8.13671875 8.125 11.6875 C8.10695312 12.86699219 8.08890625 14.04648438 8.0703125 15.26171875 C8.03550781 16.61716797 8.03550781 16.61716797 8 18 C5.36 18 2.72 18 0 18 C0 12.06 0 6.12 0 0 Z " fill="#63584D" transform="translate(204,113)"/>
<path d="M0 0 C1.32 0 2.64 0 4 0 C4.84549638 2.20432985 5.67642814 4.41248533 6.5 6.625 C6.9640625 7.85476562 7.428125 9.08453125 7.90625 10.3515625 C8.94316919 13.81042866 9.22019382 16.42185036 9 20 C5.125 18.125 5.125 18.125 4 17 C3.67 17.66 3.34 18.32 3 19 C1.68 18.67 0.36 18.34 -1 18 C-0.505 9.09 -0.505 9.09 0 0 Z " fill="#312920" transform="translate(222,186)"/>
<path d="M0 0 C2.4969784 3.7454676 4.89236618 7.54060654 7.25 11.375 C7.97703125 12.50808594 7.97703125 12.50808594 8.71875 13.6640625 C12.15465699 19.31158778 12.15465699 19.31158778 11.359375 22.8515625 C10.91078125 23.56054688 10.4621875 24.26953125 10 25 C9.67 25.99 9.34 26.98 9 28 C7.37087868 24.93967541 5.747443 21.87636963 4.125 18.8125 C3.43470703 17.51602539 3.43470703 17.51602539 2.73046875 16.19335938 C2.28574219 15.35224609 1.84101563 14.51113281 1.3828125 13.64453125 C0.97434082 12.87471924 0.56586914 12.10490723 0.14501953 11.31176758 C-1.04076321 8.91770003 -2.04011256 6.49223788 -3 4 C-2.01 4 -1.02 4 0 4 C0 2.68 0 1.36 0 0 Z " fill="#1E160D" transform="translate(143,105)"/>
<path d="M0 0 C4.41006862 0.4305067 6.83000573 3.4217054 9.75 6.4375 C10.25660156 6.94087891 10.76320312 7.44425781 11.28515625 7.96289062 C15 11.73280618 15 11.73280618 15 14 C5.46099682 14.90211238 5.46099682 14.90211238 2.12109375 12.83984375 C0.75 11.3125 0.75 11.3125 -1 8 C-0.8125 5.3125 -0.8125 5.3125 0 3 C0 2.01 0 1.02 0 0 Z " fill="#F5F3EF" transform="translate(234,124)"/>
<path d="M0 0 C0.99 0.33 1.98 0.66 3 1 C1.53048722 6.19682003 -1.75592571 9.03559303 -5.5625 12.625 C-6.75579381 13.75831006 -7.94480118 14.89615525 -9.12890625 16.0390625 C-9.65556885 16.53615723 -10.18223145 17.03325195 -10.72485352 17.54541016 C-12.24547875 19.09046866 -12.24547875 19.09046866 -13 22 C-14.9375 22.75 -14.9375 22.75 -17 23 C-17.66 22.67 -18.32 22.34 -19 22 C-15.23684169 13.36454198 -6.64955013 6.48648215 0 0 Z " fill="#E3DBD3" transform="translate(120,70)"/>
<path d="M0 0 C0.99 0 1.98 0 3 0 C3 2.31 3 4.62 3 7 C5.32891902 6.95547581 5.32891902 6.95547581 8 6 C8.78375 4.96875 9.5675 3.9375 10.375 2.875 C11.24125 1.92625 12.1075 0.9775 13 0 C16.8125 0.125 16.8125 0.125 20 1 C20 1.66 20 2.32 20 3 C18.02 3 16.04 3 14 3 C13.67 4.32 13.34 5.64 13 7 C15.31 7.33 17.62 7.66 20 8 C20 8.99 20 9.98 20 11 C16.85418577 11.02888514 13.70840531 11.04675923 10.5625 11.0625 C9.21575195 11.07506836 9.21575195 11.07506836 7.84179688 11.08789062 C6.56079102 11.09272461 6.56079102 11.09272461 5.25390625 11.09765625 C4.46314697 11.10289307 3.6723877 11.10812988 2.85766602 11.11352539 C1 11 1 11 0 10 C-0.07205511 8.31391034 -0.08386068 6.62499341 -0.0625 4.9375 C-0.05347656 4.01839844 -0.04445312 3.09929687 -0.03515625 2.15234375 C-0.02355469 1.44207031 -0.01195312 0.73179687 0 0 Z " fill="#1F1B17" transform="translate(144,224)"/>
<path d="M0 0 C1.36623674 2.73247348 1.128426 4.98198902 1 8 C0.67 8.33 0.34 8.66 0 9 C0.33 9 0.66 9 1 9 C1 11.64 1 14.28 1 17 C0.67 17 0.34 17 0 17 C-0.144375 16.0925 -0.28875 15.185 -0.4375 14.25 C-2.50433367 9.95098597 -4.79632805 9.33454779 -9.1015625 7.6640625 C-9.72804688 7.44492188 -10.35453125 7.22578125 -11 7 C-11.66 7.66 -12.32 8.32 -13 9 C-13 6.69 -13 4.38 -13 2 C-8.50343896 -0.24828052 -4.92127034 -0.16682272 0 0 Z " fill="#0E0B08" transform="translate(273,184)"/>
<path d="M0 0 C2.47923801 -0.02685095 4.9581884 -0.04676547 7.4375 -0.0625 C8.14455078 -0.07087891 8.85160156 -0.07925781 9.58007812 -0.08789062 C11.38693559 -0.09653588 13.19387603 -0.05220011 15 0 C16 1 16 1 16.0625 3.5625 C16.041875 4.366875 16.02125 5.17125 16 6 C15.34 5.01 14.68 4.02 14 3 C12.68 2.67 11.36 2.34 10 2 C10 7.94 10 13.88 10 20 C8.68 20 7.36 20 6 20 C6 14.06 6 8.12 6 2 C4.35 2.33 2.7 2.66 1 3 C0.67 3.99 0.34 4.98 0 6 C0 4.02 0 2.04 0 0 Z " fill="#A39A90" transform="translate(78,185)"/>
<path d="M0 0 C0.66 0.99 1.32 1.98 2 3 C4.14340627 4.18682918 4.14340627 4.18682918 6.5625 5.125 C10.92643052 6.92643052 10.92643052 6.92643052 12 8 C12.28250225 11.17815029 12.24504509 13.4180179 11 16.375 C8.2836266 18.58205339 6.3363769 18.28114762 2.9375 18.04296875 C0.77950426 17.88617402 0.77950426 17.88617402 -2 19 C-4.74607776 18.91232913 -7.45091508 18.77043265 -10.1875 18.5625 C-10.93708984 18.51029297 -11.68667969 18.45808594 -12.45898438 18.40429688 C-14.30637082 18.27486216 -16.15324371 18.13813482 -18 18 C-18 17.34 -18 16.68 -18 16 C-13.05 16.33 -8.1 16.66 -3 17 C-3.33 15.02 -3.66 13.04 -4 11 C-3.34 11 -2.68 11 -2 11 C-2 11.66 -2 12.32 -2 13 C0.96341714 14.64634286 3.63176256 15.55681086 7 16 C7.66 15.67 8.32 15.34 9 15 C9.65555119 12.47266765 9.65555119 12.47266765 10 10 C7.98177083 9.54427083 5.96354167 9.08854167 3.9453125 8.6328125 C2 8 2 8 0 6 C-0.125 2.875 -0.125 2.875 0 0 Z " fill="#1D1914" transform="translate(261,188)"/>
<path d="M0 0 C1.87109375 0.578125 1.87109375 0.578125 4.37109375 3.078125 C6.2656806 7.49882766 6.4021121 9.79895988 5.87109375 14.578125 C4.37109375 17.578125 4.37109375 17.578125 2.87109375 19.578125 C1.82534744 16.44088608 1.80116858 14.29773747 1.87109375 11.015625 C2.05475622 7.14688849 2.05475622 7.14688849 0.87109375 3.578125 C-1.12845371 3.53558144 -3.12932261 3.53731717 -5.12890625 3.578125 C-7.06981451 5.51903326 -6.5281006 9.05106402 -6.69140625 11.640625 C-6.77519531 12.93097656 -6.85898438 14.22132813 -6.9453125 15.55078125 C-7.00589844 16.54980469 -7.06648437 17.54882812 -7.12890625 18.578125 C-7.78890625 18.578125 -8.44890625 18.578125 -9.12890625 18.578125 C-11.60329252 14.8665456 -11.91229179 10.88262241 -11.12890625 6.578125 C-8.85200924 1.55836135 -5.39635091 -0.44884582 0 0 Z " fill="#5E5449" transform="translate(211.12890625,184.421875)"/>
<path d="M0 0 C1.7015625 0.5259375 1.7015625 0.5259375 3.4375 1.0625 C2.4475 1.7225 1.4575 2.3825 0.4375 3.0625 C0.1075 3.7225 -0.2225 4.3825 -0.5625 5.0625 C-1.8825 4.4025 -3.2025 3.7425 -4.5625 3.0625 C-4.79066406 3.61518555 -5.01882812 4.16787109 -5.25390625 4.73730469 C-6.94095518 7.73496403 -9.07062518 9.8301506 -11.5 12.265625 C-11.98073975 12.7482782 -12.46147949 13.2309314 -12.95678711 13.72821045 C-13.96971093 14.74249064 -14.98514638 15.75426804 -16.00292969 16.76367188 C-17.56423165 18.31421972 -19.11452497 19.87520503 -20.6640625 21.4375 C-21.65040061 22.42251734 -22.6373585 23.40691453 -23.625 24.390625 C-24.52347656 25.2868457 -25.42195313 26.18306641 -26.34765625 27.10644531 C-28.5625 29.0625 -28.5625 29.0625 -30.5625 29.0625 C-29.04349978 25.4383636 -26.88179546 23.204876 -24.0625 20.5 C-21.53440847 18.0663015 -19.51577066 15.99240599 -17.5625 13.0625 C-16.9025 13.0625 -16.2425 13.0625 -15.5625 13.0625 C-15.31757812 12.50175781 -15.07265625 11.94101563 -14.8203125 11.36328125 C-11.81973062 5.87463925 -6.83196813 -0.92554292 0 0 Z " fill="#B3814E" transform="translate(123.5625,60.9375)"/>
<path d="M0 0 C0.99 0.66 1.98 1.32 3 2 C2.28585938 2.70511719 1.57171875 3.41023438 0.8359375 4.13671875 C-1.98142398 6.95507156 -4.6898076 9.86856824 -7.375 12.8125 C-7.85904297 13.34238525 -8.34308594 13.87227051 -8.84179688 14.41821289 C-13.60637216 19.64636417 -18.29094204 24.92845627 -22.80078125 30.37890625 C-23.29707031 30.97517822 -23.79335937 31.5714502 -24.3046875 32.18579102 C-25.29818934 33.38117835 -26.28661444 34.58080608 -27.26953125 35.78491211 C-28.46957625 37.22722472 -29.73025508 38.61865229 -31 40 C-31.66 40 -32.32 40 -33 40 C-31.49993609 36.55220914 -29.49590738 34.17639467 -26.9375 31.4375 C-23.68892508 27.89831774 -20.57531784 24.30439832 -17.5625 20.5625 C-13.60395178 15.66475317 -9.44683829 11.02603683 -5.1640625 6.41015625 C-3.30779022 4.34279164 -1.6208858 2.25355413 0 0 Z " fill="#AC9A88" transform="translate(200,98)"/>
<path d="M0 0 C12.89473684 10.78947368 12.89473684 10.78947368 15 15 C15.99 15.33 16.98 15.66 18 16 C18.33 15.01 18.66 14.02 19 13 C20.03531726 13.90027588 21.05294165 14.82093035 22.0625 15.75 C22.63097656 16.26046875 23.19945312 16.7709375 23.78515625 17.296875 C25 19 25 19 24.84375 21.125 C24 23 24 23 21.4375 24.25 C20.633125 24.4975 19.82875 24.745 19 25 C18.62746094 24.13632813 18.25492188 23.27265625 17.87109375 22.3828125 C15.72678313 18.50604215 13.2418811 15.90335082 10.0625 12.875 C9.53720703 12.36324219 9.01191406 11.85148437 8.47070312 11.32421875 C7.45032218 10.33065633 6.4265241 9.34058815 5.39892578 8.35449219 C4.16075151 7.15564561 2.95111249 5.92748071 1.74609375 4.6953125 C0.09541299 2.92179144 0.09541299 2.92179144 -2 2 C-1.34 1.34 -0.68 0.68 0 0 Z " fill="#2A1D10" transform="translate(123,72)"/>
<path d="M0 0 C4.55618364 1.13904591 6.54484986 3.1282886 9.6875 6.375 C10.18572266 6.87 10.68394531 7.365 11.19726562 7.875 C13.51768661 10.23005413 14.94091776 11.82275328 16 15 C15.34 15 14.68 15 14 15 C14 14.34 14 13.68 14 13 C12.68 13 11.36 13 10 13 C9.67 13.66 9.34 14.32 9 15 C7.8553125 13.824375 7.8553125 13.824375 6.6875 12.625 C4.09108195 9.92742283 4.09108195 9.92742283 1 8 C1.99 8 2.98 8 4 8 C3.67 6.35 3.34 4.7 3 3 C2.01 2.67 1.02 2.34 0 2 C-0.103125 2.639375 -0.20625 3.27875 -0.3125 3.9375 C-0.539375 4.618125 -0.76625 5.29875 -1 6 C-1.99 6.33 -2.98 6.66 -4 7 C-4.33 7.99 -4.66 8.98 -5 10 C-5.99 9.67 -6.98 9.34 -8 9 C-5.36 6.03 -2.72 3.06 0 0 Z " fill="#21170E" transform="translate(204,84)"/>
<path d="M0 0 C0 4.95 0 9.9 0 15 C-0.66 15 -1.32 15 -2 15 C-2.33 13.68 -2.66 12.36 -3 11 C-5.31 10.67 -7.62 10.34 -10 10 C-10.32152515 6.46322336 -10.4131192 4.6037896 -8.375 1.625 C-6 0 -6 0 0 0 Z " fill="#1F1A14" transform="translate(204,113)"/>
<path d="M0 0 C0.66 0 1.32 0 2 0 C2.83679277 2.62394306 3.66956942 5.24904384 4.5 7.875 C4.73847656 8.62136719 4.97695312 9.36773437 5.22265625 10.13671875 C7 15.7734375 7 15.7734375 7 18 C6.01 18 5.02 18 4 18 C3.67 16.35 3.34 14.7 3 13 C1.02 13 -0.96 13 -3 13 C-3.33 13.66 -3.66 14.32 -4 15 C-4.125 8.375 -4.125 8.375 -3 5 C-2.34 5 -1.68 5 -1 5 C-0.67 3.35 -0.34 1.7 0 0 Z " fill="#392E21" transform="translate(123,187)"/>
<path d="M0 0 C2 1.8125 2 1.8125 4 4 C4 4.99 4 5.98 4 7 C-9.2 7 -22.4 7 -36 7 C-36.33 6.01 -36.66 5.02 -37 4 C-24.79 4 -12.58 4 0 4 C0 2.68 0 1.36 0 0 Z " fill="#C7BFB6" transform="translate(151,131)"/>
<path d="M0 0 C7.8581456 7.64576328 7.8581456 7.64576328 8.29296875 11.796875 C8.25816406 12.77140625 8.22335938 13.7459375 8.1875 14.75 C8.16042969 15.73484375 8.13335937 16.7196875 8.10546875 17.734375 C8.07066406 18.48203125 8.03585938 19.2296875 8 20 C5.69 20 3.38 20 1 20 C1 19.67 1 19.34 1 19 C2.65 19 4.3 19 6 19 C5.67 15.04 5.34 11.08 5 7 C-0.13476247 8.12385353 -0.13476247 8.12385353 -5 10 C-5 9.34 -5 8.68 -5 8 C-5.99 7.67 -6.98 7.34 -8 7 C-5.36 4.69 -2.72 2.38 0 0 Z " fill="#1D160F" transform="translate(123,74)"/>
<path d="M0 0 C1.98 0 3.96 0 6 0 C6.33 6.6 6.66 13.2 7 20 C4.525 19.01 4.525 19.01 2 18 C2 12.72 2 7.44 2 2 C1.34 2 0.68 2 0 2 C0 1.34 0 0.68 0 0 Z " fill="#9D968D" transform="translate(59,185)"/>
<path d="M0 0 C5.00115366 3.71880656 8.61006636 8.07928701 12.48046875 12.9453125 C15.63813843 16.77368101 19.00248472 20.37909915 22.45776367 23.93969727 C24.88402079 26.50324844 26.59368848 28.41937972 27 32 C21.12212876 27.42832237 16.52341348 22.0385463 11.79296875 16.33984375 C7.40305061 11.055204 2.85925135 5.85925135 -2 1 C-1.34 0.67 -0.68 0.34 0 0 Z " fill="#A27241" transform="translate(82,106)"/>
<path d="M0 0 C4.38239078 3.53962332 8.2004719 7.1912706 11.73828125 11.58203125 C12.96479293 13.1369442 12.96479293 13.1369442 15 14 C15 14.66 15 15.32 15 16 C11.8994667 16.31274945 10.45889295 16.33669241 7.90234375 14.4609375 C4.17076096 10.49937644 0.80430151 6.67383585 -2 2 C-1.34 2 -0.68 2 0 2 C0 1.34 0 0.68 0 0 Z " fill="#D59F66" transform="translate(248,122)"/>
<path d="M0 0 C0.33 0 0.66 0 1 0 C1.165 0.928125 1.33 1.85625 1.5 2.8125 C3.1842647 6.39156248 3.6106519 6.58971722 7.125 7.875 C8.40982976 8.27279427 9.69991255 8.65532565 11 9 C11 10.65 11 12.3 11 14 C8.625 15.0625 8.625 15.0625 6 16 C5.34 15.67 4.68 15.34 4 15 C4 14.34 4 13.68 4 13 C3.34 13 2.68 13 2 13 C2 12.34 2 11.68 2 11 C1.34 10.67 0.68 10.34 0 10 C0.66 9.67 1.32 9.34 2 9 C1.01 8.34 0.02 7.68 -1 7 C-0.67 4.69 -0.34 2.38 0 0 Z " fill="#070503" transform="translate(24,189)"/>
<path d="M0 0 C9.05242445 1.29795792 17.37383109 3.18448976 25.125 8.1796875 C21.90807855 9.25199465 20.88477701 9.11663354 17.6875 8.3671875 C16.92566406 8.19574219 16.16382813 8.02429688 15.37890625 7.84765625 C13.125 7.1796875 13.125 7.1796875 11.29296875 6.17578125 C8.22352665 4.76549704 5.21524864 4.48768269 1.875 4.0546875 C0.61171875 3.88710937 -0.6515625 3.71953125 -1.953125 3.546875 C-2.91734375 3.42570313 -3.8815625 3.30453125 -4.875 3.1796875 C-2.43222326 0.23308806 -2.43222326 0.23308806 0 0 Z " fill="#E3DBD3" transform="translate(263.875,143.8203125)"/>
<path d="M0 0 C3.875 0.875 3.875 0.875 5 2 C5.04723197 3.54094298 5.03724995 5.08378342 5 6.625 C4.95106718 10.88215496 5.27145161 14.81084675 6 19 C4.68 18.67 3.36 18.34 2 18 C1.690625 16.906875 1.38125 15.81375 1.0625 14.6875 C0.41662103 12.44592006 -0.2623117 10.2130649 -1 8 C-0.34 8 0.32 8 1 8 C0.67 5.36 0.34 2.72 0 0 Z " fill="#615548" transform="translate(144,186)"/>
<path d="M0 0 C2.31 0 4.62 0 7 0 C7.33 0.99 7.66 1.98 8 3 C7.34 3 6.68 3 6 3 C6.08378906 4.28777344 6.16757813 5.57554687 6.25390625 6.90234375 C6.35704621 8.58071227 6.45989584 10.25909864 6.5625 11.9375 C6.61857422 12.78763672 6.67464844 13.63777344 6.73242188 14.51367188 C6.78076172 15.32255859 6.82910156 16.13144531 6.87890625 16.96484375 C6.94960327 18.08814087 6.94960327 18.08814087 7.02172852 19.23413086 C7 21 7 21 6 22 C3.66702567 22.04092937 1.33294775 22.04241723 -1 22 C-1 21.34 -1 20.68 -1 20 C0.65 20.33 2.3 20.66 4 21 C4 14.73 4 8.46 4 2 C2.35 2.33 0.7 2.66 -1 3 C-0.67 2.01 -0.34 1.02 0 0 Z " fill="#483D32" transform="translate(191,184)"/>
<path d="M0 0 C7.26 0 14.52 0 22 0 C22.33 0.66 22.66 1.32 23 2 C20.54724859 3.2263757 18.9494219 3.11415314 16.2109375 3.09765625 C15.26992187 3.09443359 14.32890625 3.09121094 13.359375 3.08789062 C12.37453125 3.07951172 11.3896875 3.07113281 10.375 3.0625 C9.38242188 3.05798828 8.38984375 3.05347656 7.3671875 3.04882812 C4.9113984 3.03702145 2.45572896 3.020554 0 3 C0 2.01 0 1.02 0 0 Z " fill="#FEFEFD" transform="translate(226,142)"/>
<path d="M0 0 C1.75070517 0.11470137 3.50057536 0.24219028 5.25 0.375 C6.22453125 0.44460937 7.1990625 0.51421875 8.203125 0.5859375 C11 1 11 1 12.84375 1.96875 C16.14764013 3.54887137 19.65060752 3.73707961 23.25 4.125 C24.36761719 4.25455078 24.36761719 4.25455078 25.5078125 4.38671875 C27.33777846 4.59786867 29.16879879 4.79984545 31 5 C31 5.33 31 5.66 31 6 C29.98679687 6.09087891 29.98679687 6.09087891 28.953125 6.18359375 C28.06109375 6.26738281 27.1690625 6.35117188 26.25 6.4375 C25.36828125 6.51871094 24.4865625 6.59992188 23.578125 6.68359375 C21.05587276 6.9137552 21.05587276 6.9137552 18.94140625 7.6484375 C16.31402932 8.12422004 15.05101724 7.37555573 12.6875 6.1875 C9.80601552 4.80152978 7.10020496 3.66123755 4 2.875 C3.01 2.58625 2.02 2.2975 1 2 C0.67 1.34 0.34 0.68 0 0 Z " fill="#B3A699" transform="translate(8,157)"/>
<path d="M0 0 C0.66 0.33 1.32 0.66 2 1 C1.34728444 4.51705958 0.48606976 7.89325077 -0.5625 11.3125 C-0.83191406 12.19550781 -1.10132813 13.07851562 -1.37890625 13.98828125 C-1.58386719 14.65214844 -1.78882813 15.31601563 -2 16 C-4.91227269 12.71195019 -6.49701212 10.40114397 -7 6 C-6.030625 5.38125 -5.06125 4.7625 -4.0625 4.125 C-0.97164638 2.34321154 -0.97164638 2.34321154 0 0 Z " fill="#E3AA6F" transform="translate(151,99)"/>
<path d="M0 0 C1.32 0.66 2.64 1.32 4 2 C4.33 2.99 4.66 3.98 5 5 C4.34 5 3.68 5 3 5 C2.731875 5.61875 2.46375 6.2375 2.1875 6.875 C1 9 1 9 -2 11 C-2.33 10.34 -2.66 9.68 -3 9 C-4.32 8.34 -5.64 7.68 -7 7 C-4.69 4.69 -2.38 2.38 0 0 Z " fill="#DFA76C" transform="translate(77,102)"/>
<path d="M0 0 C0.66 0.33 1.32 0.66 2 1 C1.67 2.32 1.34 3.64 1 5 C1.84884766 5.41572266 1.84884766 5.41572266 2.71484375 5.83984375 C3.44832031 6.20207031 4.18179687 6.56429687 4.9375 6.9375 C5.66839844 7.29714844 6.39929688 7.65679687 7.15234375 8.02734375 C9 9 9 9 10 10 C10.04063832 11.66617115 10.042721 13.33388095 10 15 C9.2265625 14.3503125 9.2265625 14.3503125 8.4375 13.6875 C5.42313221 11.60062999 2.38536255 10.40524483 -1 9 C-2 8 -2 8 -2.1875 5.0625 C-2 2 -2 2 0 0 Z " fill="#BFB7AF" transform="translate(27,186)"/>
<path d="M0 0 C0.99 0 1.98 0 3 0 C3 6.27 3 12.54 3 19 C2.01 19 1.02 19 0 19 C0 12.73 0 6.46 0 0 Z " fill="#D8D0C6" transform="translate(182,186)"/>
<path d="M0 0 C0.99 0 1.98 0 3 0 C3 6.27 3 12.54 3 19 C2.01 19 1.02 19 0 19 C0 12.73 0 6.46 0 0 Z " fill="#CCC6BF" transform="translate(98,186)"/>
<path d="M0 0 C0.99 0 1.98 0 3 0 C3 6.27 3 12.54 3 19 C2.01 19 1.02 19 0 19 C0 12.73 0 6.46 0 0 Z " fill="#D6D1CB" transform="translate(236,186)"/>
<path d="M0 0 C0.99 0 1.98 0 3 0 C3 6.27 3 12.54 3 19 C2.01 19 1.02 19 0 19 C0 12.73 0 6.46 0 0 Z " fill="#D8CFC6" transform="translate(137,186)"/>
<path d="M0 0 C0.99 0 1.98 0 3 0 C3 6.27 3 12.54 3 19 C2.01 19 1.02 19 0 19 C0 12.73 0 6.46 0 0 Z " fill="#D4CBC2" transform="translate(155,186)"/>
<path d="M0 0 C1.32 0 2.64 0 4 0 C4 4.95 4 9.9 4 15 C2.68 15 1.36 15 0 15 C0 10.05 0 5.1 0 0 Z " fill="#000000" transform="translate(240,188)"/>
<path d="M0 0 C0 3 0 3 -1 5 C-0.34 5.33 0.32 5.66 1 6 C0.360625 6.598125 -0.27875 7.19625 -0.9375 7.8125 C-3.20310389 9.90810337 -3.20310389 9.90810337 -4 13 C-5.9375 13.75 -5.9375 13.75 -8 14 C-8.66 13.67 -9.32 13.34 -10 13 C-8.48446596 9.52224821 -6.4226544 7.0442016 -3.875 4.25 C-3.15054688 3.45078125 -2.42609375 2.6515625 -1.6796875 1.828125 C-0.84824219 0.92320313 -0.84824219 0.92320313 0 0 Z " fill="#DCD5CE" transform="translate(111,79)"/>
<path d="M0 0 C0 1.98 0 3.96 0 6 C-0.99 6 -1.98 6 -3 6 C-3.33 5.01 -3.66 4.02 -4 3 C-6.40877257 3.11341534 -6.40877257 3.11341534 -9 4 C-10.77148372 6.47933197 -10.77148372 6.47933197 -12 9 C-12.33 9 -12.66 9 -13 9 C-13 6.69 -13 4.38 -13 2 C-8.50343896 -0.24828052 -4.92127034 -0.16682272 0 0 Z " fill="#3F352B" transform="translate(273,184)"/>
<path d="M0 0 C0.99 1.485 0.99 1.485 2 3 C4.14340627 4.18682918 4.14340627 4.18682918 6.5625 5.125 C10.92643052 6.92643052 10.92643052 6.92643052 12 8 C12.04063832 9.66617115 12.042721 11.33388095 12 13 C11.2265625 12.3503125 11.2265625 12.3503125 10.4375 11.6875 C7.42313221 9.60062999 4.38536255 8.40524483 1 7 C0 6 0 6 -0.0625 2.9375 C-0.041875 1.968125 -0.02125 0.99875 0 0 Z " fill="#CFC9C2" transform="translate(261,188)"/>
<path d="M0 0 C3 1 3 1 4 3 C4.16796875 5.05859375 4.16796875 5.05859375 4.1875 7.4375 C4.20167969 8.21996094 4.21585938 9.00242188 4.23046875 9.80859375 C4 12 4 12 2 15 C1.34 15 0.68 15 0 15 C0 10.05 0 5.1 0 0 Z " fill="#9B9085" transform="translate(53,188)"/>
<path d="M0 0 C-0.88678564 4.71561306 -3.34341483 7.94864272 -7 11 C-10.375 11.4375 -10.375 11.4375 -13 11 C-3.73033708 0 -3.73033708 0 0 0 Z " fill="#1D160D" transform="translate(51,127)"/>
<path d="M0 0 C6.96662143 5.82921385 13.29997666 11.91815282 19 19 C18.67 19.66 18.34 20.32 18 21 C14.484375 17.484375 10.96875 13.96875 7.453125 10.453125 C6.85306641 9.85435547 6.25300781 9.25558594 5.63476562 8.63867188 C4.30427893 7.305006 2.98619354 5.95897726 1.671875 4.609375 C0.07744293 2.91451166 0.07744293 2.91451166 -2 2 C-1.34 1.34 -0.68 0.68 0 0 Z " fill="#816951" transform="translate(123,72)"/>
<path d="M0 0 C0.33 0 0.66 0 1 0 C1 5.94 1 11.88 1 18 C2.98 18 4.96 18 7 18 C7.33 17.34 7.66 16.68 8 16 C8 16.66 8 17.32 8 18 C8.99 18 9.98 18 11 18 C11 18.66 11 19.32 11 20 C5.72 20 0.44 20 -5 20 C-5 19.34 -5 18.68 -5 18 C-3.35 18.33 -1.7 18.66 0 19 C0 12.73 0 6.46 0 0 Z " fill="#40372D" transform="translate(111,186)"/>
<path d="M0 0 C3.625 0.375 3.625 0.375 7 1 C6.34 2.65 5.68 4.3 5 6 C2.03 6 -0.94 6 -4 6 C-2 2 -2 2 0 0 Z " fill="#D39D66" transform="translate(48,132)"/>
<path d="M0 0 C2.31 0 4.62 0 7 0 C7 2.31 7 4.62 7 7 C4.69 7 2.38 7 0 7 C0 4.69 0 2.38 0 0 Z " fill="#CA955F" transform="translate(72,128)"/>
<path d="M0 0 C2.31 0 4.62 0 7 0 C7 2.31 7 4.62 7 7 C4.69 7 2.38 7 0 7 C0 4.69 0 2.38 0 0 Z " fill="#F4EDE5" transform="translate(194,124)"/>
<path d="M0 0 C2.31 0 4.62 0 7 0 C7 2.31 7 4.62 7 7 C4.69 7 2.38 7 0 7 C0 4.69 0 2.38 0 0 Z " fill="#F4F0EB" transform="translate(205,124)"/>
<path d="M0 0 C0.99 0 1.98 0 3 0 C3.89401475 2.24403702 4.76515289 4.49290133 5.625 6.75 C5.88023437 7.38421875 6.13546875 8.0184375 6.3984375 8.671875 C8.19059227 13.45095438 8.19059227 13.45095438 7.1484375 16.453125 C6.76945313 16.96359375 6.39046875 17.4740625 6 18 C3.49289691 12.06084316 1.39938346 6.29722557 0 0 Z " fill="#DBD4CE" transform="translate(223,186)"/>
<path d="M0 0 C0.66 0 1.32 0 2 0 C2.83679277 2.62394306 3.66956942 5.24904384 4.5 7.875 C4.73847656 8.62136719 4.97695312 9.36773437 5.22265625 10.13671875 C7 15.7734375 7 15.7734375 7 18 C6.01 18 5.02 18 4 18 C3.32451422 15.94037148 2.65995688 13.87715678 2 11.8125 C1.62875 10.66394531 1.2575 9.51539063 0.875 8.33203125 C0.09369447 5.35679188 -0.18363306 3.04716104 0 0 Z " fill="#DED8D2" transform="translate(123,187)"/>
<path d="M0 0 C0.33 0 0.66 0 1 0 C1 6.27 1 12.54 1 19 C0.67 19 0.34 19 0 19 C-0.33 16.03 -0.66 13.06 -1 10 C-1.66 11.98 -2.32 13.96 -3 16 C-4.1484375 14.390625 -4.1484375 14.390625 -5 12 C-4.1015625 8.984375 -4.1015625 8.984375 -2.625 5.75 C-2.14289063 4.67234375 -1.66078125 3.5946875 -1.1640625 2.484375 C-0.77992188 1.66453125 -0.39578125 0.8446875 0 0 Z " fill="#44372A" transform="translate(235,186)"/>
<path d="M0 0 C0.66 0 1.32 0 2 0 C2 4.95 2 9.9 2 15 C0 15 0 15 -1.6875 13.5 C-3.56972013 9.91481881 -3.04961089 6.84331204 -2 3 C-1.34 2.01 -0.68 1.02 0 0 Z " fill="#C5BDB5" transform="translate(42,188)"/>
<path d="M0 0 C2.375 -0.1875 2.375 -0.1875 5 0 C7 3 7 3 7 7 C4.69 7 2.38 7 0 7 C0 4.69 0 2.38 0 0 Z " fill="#795530" transform="translate(81,119)"/>
<path d="M0 0 C0.66 0.33 1.32 0.66 2 1 C2 1.66 2 2.32 2 3 C3.0725 3.12375 4.145 3.2475 5.25 3.375 C9 4 9 4 13 6 C-1.85 5.505 -1.85 5.505 -17 5 C-17 4.67 -17 4.34 -17 4 C-11.06 4 -5.12 4 1 4 C0.67 2.68 0.34 1.36 0 0 Z " fill="#42372B" transform="translate(236,135)"/>
<path d="M0 0 C1.32 0.66 2.64 1.32 4 2 C4 2.66 4 3.32 4 4 C3.29875 4.20625 2.5975 4.4125 1.875 4.625 C-1.40938865 6.19579457 -3.25034247 8.09140674 -5.66796875 10.7578125 C-7 12 -7 12 -9 12 C-9 12.66 -9 13.32 -9 14 C-9.66 14 -10.32 14 -11 14 C-9.42219077 10.28954753 -7.09296752 7.70093616 -4.375 4.75 C-3.55773437 3.85796875 -2.74046875 2.9659375 -1.8984375 2.046875 C-1.27195313 1.37140625 -0.64546875 0.6959375 0 0 Z " fill="#1B1610" transform="translate(189,114)"/>
<path d="M0 0 C3.875 1.75 3.875 1.75 5 4 C5.35512837 9.4157076 5.36699949 12.51066735 2 17 C1.34 16.67 0.68 16.34 0 16 C0.33 15.34 0.66 14.68 1 14 C1.09632897 12.18958207 1.12981533 10.37547247 1.125 8.5625 C1.12757813 7.59441406 1.13015625 6.62632812 1.1328125 5.62890625 C1.11213973 2.88982171 1.11213973 2.88982171 0 0 Z " fill="#D0C8BF" transform="translate(165,187)"/>
<path d="M0 0 C0 1.65 0 3.3 0 5 C-3.3 5 -6.6 5 -10 5 C-7.2178219 -0.5643562 -5.86594058 -0.12752045 0 0 Z " fill="#A19386" transform="translate(128,81)"/>
<path d="M0 0 C-1.44424635 3.23861303 -3.25772247 5.61969163 -5.625 8.25 C-6.25664063 8.95640625 -6.88828125 9.6628125 -7.5390625 10.390625 C-8.02117188 10.92171875 -8.50328125 11.4528125 -9 12 C-10.140625 8.3203125 -10.140625 8.3203125 -8.875 5.4375 C-6.53828272 2.39976753 -3.99732226 0 0 0 Z " fill="#171009" transform="translate(70,108)"/>
<path d="M0 0 C1.14926266 0.95421808 2.29430541 1.91352045 3.4375 2.875 C4.39462891 3.67550781 4.39462891 3.67550781 5.37109375 4.4921875 C7 6 7 6 8 8 C6.68 7.67 5.36 7.34 4 7 C3.67 7.66 3.34 8.32 3 9 C0.69 6.69 -1.62 4.38 -4 2 C-2.68 1.34 -1.36 0.68 0 0 Z " fill="#271B10" transform="translate(126,69)"/>
<path d="M0 0 C0.99 0.33 1.98 0.66 3 1 C3 2.98 3 4.96 3 7 C4.32 7 5.64 7 7 7 C7 7.99 7 8.98 7 10 C4.69 10 2.38 10 0 10 C0 6.7 0 3.4 0 0 Z " fill="#7A6E61" transform="translate(134,224)"/>
<path d="M0 0 C4.75 0.875 4.75 0.875 7 2 C7 3.65 7 5.3 7 7 C4 8 4 8 1.8125 7.0625 C1.214375 6.711875 0.61625 6.36125 0 6 C0.185625 5.38125 0.37125 4.7625 0.5625 4.125 C1.23686176 1.95839822 1.23686176 1.95839822 0 0 Z " fill="#0C0905" transform="translate(27,185)"/>
<path d="M0 0 C3.26008643 3.16952847 6.22237877 6.39937989 9 10 C7.02 10.33 5.04 10.66 3 11 C-0.875 5.25 -0.875 5.25 -2 3 C-1.34 2.67 -0.68 2.34 0 2 C0 1.34 0 0.68 0 0 Z " fill="#281F17" transform="translate(106,127)"/>
<path d="M0 0 C0.99 0 1.98 0 3 0 C3 2.64 3 5.28 3 8 C4.65 8 6.3 8 8 8 C8 8.66 8 9.32 8 10 C5.36 10 2.72 10 0 10 C0 6.7 0 3.4 0 0 Z " fill="#8A7D6F" transform="translate(144,224)"/>
<path d="M0 0 C1.65 0 3.3 0 5 0 C6.20272819 2.40545638 6.10071472 3.94996953 6.0625 6.625 C6.05347656 7.44226563 6.04445312 8.25953125 6.03515625 9.1015625 C6.02355469 9.72804687 6.01195312 10.35453125 6 11 C5.67 11 5.34 11 5 11 C5 9.02 5 7.04 5 5 C4.34 5 3.68 5 3 5 C3 5.66 3 6.32 3 7 C2.01 7 1.02 7 0 7 C0 4.69 0 2.38 0 0 Z " fill="#040301" transform="translate(249,187)"/>
<path d="M0 0 C1.32 0.33 2.64 0.66 4 1 C4.061875 1.928125 4.061875 1.928125 4.125 2.875 C4.41375 3.57625 4.7025 4.2775 5 5 C7.99615946 6.3045656 7.99615946 6.3045656 11 7 C11 7.33 11 7.66 11 8 C5.01006953 8.3152595 1.36439644 7.68219822 -4 5 C-4 4.67 -4 4.34 -4 4 C-2.02 4 -0.04 4 2 4 C1.34 2.68 0.68 1.36 0 0 Z " fill="#211A12" transform="translate(247,134)"/>
<path d="M0 0 C0.66 0 1.32 0 2 0 C4.46372552 3.69558828 4.57583561 6.71044199 4 11 C2.5 14 2.5 14 1 16 C-0.14077657 12.57767028 -0.09815117 9.91326783 -0.0625 6.3125 C-0.05347656 5.13300781 -0.04445312 3.95351562 -0.03515625 2.73828125 C-0.02355469 1.83464844 -0.01195312 0.93101562 0 0 Z " fill="#DCD7D2" transform="translate(213,188)"/>
<path d="M0 0 C0 2.31 0 4.62 0 7 C-2.31 7 -4.62 7 -7 7 C-6.22006468 2.47637516 -4.81844319 0 0 0 Z " fill="#E1D8D0" transform="translate(201,113)"/>
<path d="M0 0 C1.32 0.33 2.64 0.66 4 1 C4.33 1.66 4.66 2.32 5 3 C4.42765625 3.08121094 3.8553125 3.16242188 3.265625 3.24609375 C0.30052315 4.23275695 -1.10575681 5.81104466 -3.25 8.0625 C-3.95640625 8.79597656 -4.6628125 9.52945313 -5.390625 10.28515625 C-6.18726563 11.13400391 -6.18726563 11.13400391 -7 12 C-7.66 11.67 -8.32 11.34 -9 11 C-6.03 7.37 -3.06 3.74 0 0 Z " fill="#221B14" transform="translate(201,100)"/>
<path d="M0 0 C2.33944736 0.28730055 4.6739143 0.61936779 7 1 C7 1.66 7 2.32 7 3 C5.02 3 3.04 3 1 3 C0.67 4.32 0.34 5.64 0 7 C2.31 7.33 4.62 7.66 7 8 C6.67 8.66 6.34 9.32 6 10 C3.125 10.125 3.125 10.125 0 10 C-0.66 9.34 -1.32 8.68 -2 8 C-1.42307692 1.42307692 -1.42307692 1.42307692 0 0 Z " fill="#A2978B" transform="translate(157,224)"/>
<path d="M0 0 C2.64 0 5.28 0 8 0 C7.67 6.6 7.34 13.2 7 20 C6.67 20 6.34 20 6 20 C6 14.06 6 8.12 6 2 C4.02 2.33 2.04 2.66 0 3 C0 2.01 0 1.02 0 0 Z " fill="#130E08" transform="translate(106,184)"/>
<path d="M0 0 C1.98 0 3.96 0 6 0 C6 1.98 6 3.96 6 6 C4.02 6 2.04 6 0 6 C0 4.02 0 2.04 0 0 Z " fill="#E4AA6F" transform="translate(82,129)"/>
<path d="M0 0 C2.96125343 1.37486766 5.60121183 2.76664549 8 5 C8.75 7.6875 8.75 7.6875 9 10 C4.5969913 8.65463623 2.528436 6.83947688 0 3 C0 2.01 0 1.02 0 0 Z " fill="#140E08" transform="translate(98,121)"/>
<path d="M0 0 C0.66 0.99 1.32 1.98 2 3 C0.9375 5 0.9375 5 -1 7 C-4.75684104 7.33543224 -7.41996227 7.19334591 -11 6 C-11 4.35 -11 2.7 -11 1 C-10.34 1 -9.68 1 -9 1 C-9 1.66 -9 2.32 -9 3 C-8.34 3 -7.68 3 -7 3 C-7 3.66 -7 4.32 -7 5 C-5.02 4.67 -3.04 4.34 -1 4 C-0.67 2.68 -0.34 1.36 0 0 Z " fill="#695C4E" transform="translate(35,199)"/>
<path d="M0 0 C1.98 0 3.96 0 6 0 C6.33 1.98 6.66 3.96 7 6 C4.23723823 5.47731534 1.6739124 4.89130413 -1 4 C-0.67 2.68 -0.34 1.36 0 0 Z " fill="#0C0905" transform="translate(120,200)"/>
<path d="M0 0 C1.32 0.33 2.64 0.66 4 1 C4.33 1.66 4.66 2.32 5 3 C3.35 2.67 1.7 2.34 0 2 C-0.103125 2.639375 -0.20625 3.27875 -0.3125 3.9375 C-0.539375 4.618125 -0.76625 5.29875 -1 6 C-1.99 6.33 -2.98 6.66 -4 7 C-4.33 7.99 -4.66 8.98 -5 10 C-5.99 9.67 -6.98 9.34 -8 9 C-5.36 6.03 -2.72 3.06 0 0 Z " fill="#342313" transform="translate(204,84)"/>
<path d="M0 0 C0.66 0 1.32 0 2 0 C2.33 4.29 2.66 8.58 3 13 C2.34 13 1.68 13 1 13 C-1.60585556 9.09121666 -1.22321871 5.53878034 -1 1 C-0.67 0.67 -0.34 0.34 0 0 Z " fill="#DFDAD6" transform="translate(201,190)"/>
<path d="M0 0 C1.98 0 3.96 0 6 0 C2.83047153 3.26008643 -0.39937989 6.22237877 -4 9 C-4 8.34 -4 7.68 -4 7 C-4.66 6.67 -5.32 6.34 -6 6 C-5.195625 5.38125 -4.39125 4.7625 -3.5625 4.125 C-0.96125481 2.25835959 -0.96125481 2.25835959 0 0 Z " fill="#C0B4A6" transform="translate(76,93)"/>
<path d="M0 0 C1.1725131 0.95117134 2.33787015 1.91117009 3.5 2.875 C4.47453125 3.67550781 4.47453125 3.67550781 5.46875 4.4921875 C6.22671875 5.23855469 6.22671875 5.23855469 7 6 C7 6.66 7 7.32 7 8 C4.75 8.3125 4.75 8.3125 2 8 C-0.3125 5.5 -0.3125 5.5 -2 3 C-1.34 3 -0.68 3 0 3 C0 2.01 0 1.02 0 0 Z " fill="#C5925C" transform="translate(256,130)"/>
<path d="M0 0 C2.4375 0.6875 2.4375 0.6875 5 2 C5.8125 4.625 5.8125 4.625 6 7 C4.02 7 2.04 7 0 7 C0 4.69 0 2.38 0 0 Z " fill="#EAE4DE" transform="translate(205,113)"/>
<path d="M0 0 C1.95901454 0.11382653 3.9172338 0.24141125 5.875 0.375 C6.96554687 0.44460937 8.05609375 0.51421875 9.1796875 0.5859375 C12 1 12 1 14 3 C9.38 3 4.76 3 0 3 C0 2.01 0 1.02 0 0 Z " fill="#FEFCFB" transform="translate(250,143)"/>
<path d="M0 0 C1.99954746 -0.04254356 4.00041636 -0.04080783 6 0 C7 1 7 1 7.0625 3.5625 C7.041875 4.366875 7.02125 5.17125 7 6 C6.67 4.68 6.34 3.36 6 2 C5.34 2 4.68 2 4 2 C4 6.62 4 11.24 4 16 C3.67 16 3.34 16 3 16 C3 11.38 3 6.76 3 2 C2.01 2 1.02 2 0 2 C0 1.34 0 0.68 0 0 Z " fill="#3D2E1F" transform="translate(71,185)"/>
<path d="M0 0 C0.33 0.66 0.66 1.32 1 2 C0.67 2.99 0.34 3.98 0 5 C0.99 4.67 1.98 4.34 3 4 C2.43628586 7.26954202 1.50037734 8.82575883 -1 11 C-1.12375 10.195625 -1.2475 9.39125 -1.375 8.5625 C-1.684375 7.2940625 -1.684375 7.2940625 -2 6 C-2.66 5.67 -3.32 5.34 -4 5 C-2.68 3.35 -1.36 1.7 0 0 Z " fill="#DEA66D" transform="translate(63,116)"/>
<path d="M0 0 C0.66 0.99 1.32 1.98 2 3 C0.9375 5 0.9375 5 -1 7 C-4.75684104 7.33543224 -7.41996227 7.19334591 -11 6 C-10.67 4.68 -10.34 3.36 -10 2 C-9.1646875 2.7734375 -9.1646875 2.7734375 -8.3125 3.5625 C-6.05914993 5.29476698 -6.05914993 5.29476698 -3.25 4.6875 C-2.13625 4.3471875 -2.13625 4.3471875 -1 4 C-0.67 2.68 -0.34 1.36 0 0 Z " fill="#766758" transform="translate(271,199)"/>
<path d="M0 0 C1.32 0 2.64 0 4 0 C4 2.31 4 4.62 4 7 C2.68 7 1.36 7 0 7 C0 4.69 0 2.38 0 0 Z " fill="#040201" transform="translate(141,187)"/>
<path d="M0 0 C0.99 0.66 1.98 1.32 3 2 C3 2.66 3 3.32 3 4 C-0.63 4 -4.26 4 -8 4 C-8.33 3.01 -8.66 2.02 -9 1 C-6.03 1.33 -3.06 1.66 0 2 C0 1.34 0 0.68 0 0 Z " fill="#C4BBB1" transform="translate(246,134)"/>
<path d="M0 0 C3 3 6 6 9 9 C8.67 9.66 8.34 10.32 8 11 C6.35 9.68 4.7 8.36 3 7 C2.67 7.66 2.34 8.32 2 9 C1.34 8.01 0.68 7.02 0 6 C0.66 6 1.32 6 2 6 C1.34 4.02 0.68 2.04 0 0 Z " fill="#463A2E" transform="translate(95,114)"/>
<path d="M0 0 C1.9375 0.5625 1.9375 0.5625 4 2 C4.75 5.625 4.75 5.625 5 9 C3.68 8.67 2.36 8.34 1 8 C0.67 5.36 0.34 2.72 0 0 Z " fill="#D5CFC9" transform="translate(145,196)"/>
<path d="M0 0 C4.29 0 8.58 0 13 0 C13 0.99 13 1.98 13 3 C8.71 2.34 4.42 1.68 0 1 C0 0.67 0 0.34 0 0 Z " fill="#F6F2EE" transform="translate(26,163)"/>
<path d="M0 0 C4.23429756 1.31061591 8.07407404 2.94356259 12 5 C8.70303895 6.09898702 7.59505097 5.87124444 4.3125 5.0625 C3.50425781 4.86785156 2.69601562 4.67320312 1.86328125 4.47265625 C1.24839844 4.31667969 0.63351562 4.16070312 0 4 C0 2.66666667 0 1.33333333 0 0 Z " fill="#978878" transform="translate(277,147)"/>
<path d="M0 0 C2.62187494 1.04874998 3.79371361 1.64931313 5.25 4.125 C5.4975 4.74375 5.745 5.3625 6 6 C5.34 6 4.68 6 4 6 C4 5.34 4 4.68 4 4 C2.02463255 4.34786708 2.02463255 4.34786708 0 5 C-0.33 5.66 -0.66 6.32 -1 7 C-1.99 5.68 -2.98 4.36 -4 3 C-3.01 2.67 -2.02 2.34 -1 2 C-0.67 1.34 -0.34 0.68 0 0 Z " fill="#322417" transform="translate(245,125)"/>
<path d="M0 0 C1 2 1 2 0.1875 5.0625 C-1 8 -1 8 -3 9 C-3 8.34 -3 7.68 -3 7 C-3.99 6.67 -4.98 6.34 -6 6 C-4.02 4.02 -2.04 2.04 0 0 Z " fill="#382C1F" transform="translate(60,114)"/>
<path d="M0 0 C0.66 0.33 1.32 0.66 2 1 C0.90653119 2.34212062 -0.2001575 3.67347975 -1.3125 5 C-2.23482422 6.11375 -2.23482422 6.11375 -3.17578125 7.25 C-5 9 -5 9 -8 9 C-6.85459775 7.68712379 -5.70866567 6.37470979 -4.5625 5.0625 C-3.92441406 4.33160156 -3.28632813 3.60070312 -2.62890625 2.84765625 C-1.77458541 1.87860647 -0.91348825 0.91348825 0 0 Z " fill="#B3A291" transform="translate(192,108)"/>
<path d="M0 0 C2.475 0.495 2.475 0.495 5 1 C5.33 2.98 5.66 4.96 6 7 C3.5625 6.3125 3.5625 6.3125 1 5 C0.1875 2.375 0.1875 2.375 0 0 Z " fill="#060503" transform="translate(227,110)"/>
<path d="M0 0 C2.1642235 3.24633524 2.37569856 4.24301443 2 8 C1.01 9.485 1.01 9.485 0 11 C-0.66 11 -1.32 11 -2 11 C-1.85892253 9.54119891 -1.71197585 8.08296449 -1.5625 6.625 C-1.48128906 5.81289062 -1.40007813 5.00078125 -1.31640625 4.1640625 C-1 2 -1 2 0 0 Z " fill="#DAD3CC" transform="translate(55,192)"/>
<path d="M0 0 C3.54971796 0.60852308 6.76693609 1.38346804 10 3 C10.33 3.99 10.66 4.98 11 6 C6.4039862 5.0151399 3.18504092 3.50354501 0 0 Z " fill="#2D2319" transform="translate(285,150)"/>
<path d="M0 0 C1.65 0 3.3 0 5 0 C5 1.65 5 3.3 5 5 C3.35 5 1.7 5 0 5 C0 3.35 0 1.7 0 0 Z " fill="#CEC2B4" transform="translate(124,88)"/>
<path d="M0 0 C1.65 0 3.3 0 5 0 C5 1.65 5 3.3 5 5 C3.35 5 1.7 5 0 5 C0 3.35 0 1.7 0 0 Z " fill="#CABFB3" transform="translate(117,88)"/>
<path d="M0 0 C0.66 0 1.32 0 2 0 C2 1.32 2 2.64 2 4 C2.66 4 3.32 4 4 4 C4 5.32 4 6.64 4 8 C3.34 8 2.68 8 2 8 C2 7.34 2 6.68 2 6 C1.01 5.67 0.02 5.34 -1 5 C-0.67 3.35 -0.34 1.7 0 0 Z " fill="#040301" transform="translate(149,120)"/>
<path d="M0 0 C2.0625 0.25 2.0625 0.25 4 1 C4.33 1.66 4.66 2.32 5 3 C3.35 3 1.7 3 0 3 C0 4.65 0 6.3 0 8 C-1.32 7.34 -2.64 6.68 -4 6 C-2.84826645 3.53199953 -1.95216435 1.95216435 0 0 Z " fill="#D6CDC3" transform="translate(205,93)"/>
<path d="M0 0 C1.65 1.65 3.3 3.3 5 5 C4.01 5.495 4.01 5.495 3 6 C3 5.34 3 4.68 3 4 C2.34 4 1.68 4 1 4 C1.33 5.32 1.66 6.64 2 8 C0 6.625 0 6.625 -2 5 C-2 4.34 -2 3.68 -2 3 C-1.34 3 -0.68 3 0 3 C0 2.01 0 1.02 0 0 Z " fill="#35291D" transform="translate(81,98)"/>
<path d="M0 0 C2.64 0.33 5.28 0.66 8 1 C7.01 1.66 6.02 2.32 5 3 C4.67 3.66 4.34 4.32 4 5 C2.35 4.67 0.7 4.34 -1 4 C-0.67 2.68 -0.34 1.36 0 0 Z " fill="#C69159" transform="translate(119,61)"/>
<path d="M0 0 C3.96 0 7.92 0 12 0 C12 0.99 12 1.98 12 3 C8.04 2.67 4.08 2.34 0 2 C0 1.34 0 0.68 0 0 Z " fill="#362A1D" transform="translate(153,185)"/>
<path d="M0 0 C0.66 0.99 1.32 1.98 2 3 C0.1875 5 0.1875 5 -2 7 C-2.99 7 -3.98 7 -5 7 C-3.70700306 4.11562221 -2.34058637 2.12780579 0 0 Z " fill="#C9BDB1" transform="translate(40,131)"/>
<path d="M0 0 C1.32 0.33 2.64 0.66 4 1 C4.33 2.32 4.66 3.64 5 5 C3.35 5 1.7 5 0 5 C0 3.35 0 1.7 0 0 Z " fill="#E4AA6F" transform="translate(82,120)"/>
<path d="M0 0 C1.875 0.125 1.875 0.125 4 1 C5.25 4.0625 5.25 4.0625 6 7 C3.53199953 5.84826645 1.95216435 4.95216435 0 3 C0 2.01 0 1.02 0 0 Z " fill="#0C0803" transform="translate(91,113)"/>
<path d="M0 0 C0 0.66 0 1.32 0 2 C-0.66 2 -1.32 2 -2 2 C-2 2.66 -2 3.32 -2 4 C-3.32 4.33 -4.64 4.66 -6 5 C-6 4.01 -6 3.02 -6 2 C-6.99 1.67 -7.98 1.34 -9 1 C-5.846632 0.29925156 -3.27275026 0 0 0 Z " fill="#C38F5A" transform="translate(209,80)"/>
<path d="M0 0 C4.51617599 -0.07654536 8.59085217 -0.10228696 13 1 C13 1.33 13 1.66 13 2 C9.37 2.33 5.74 2.66 2 3 C1.34 2.01 0.68 1.02 0 0 Z " fill="#DCA368" transform="translate(138,65)"/>
<path d="M0 0 C0.86625 0.556875 0.86625 0.556875 1.75 1.125 C1.75 2.775 1.75 4.425 1.75 6.125 C0.88375 5.444375 0.88375 5.444375 0 4.75 C-2.0300333 3.28386484 -3.98539843 2.17642216 -6.25 1.125 C-2.80384615 -1.09038462 -2.80384615 -1.09038462 0 0 Z " fill="#C4BCB4" transform="translate(271.25,194.875)"/>
<path d="M0 0 C1.32 0.33 2.64 0.66 4 1 C4.66 3.31 5.32 5.62 6 8 C5.01 8.495 5.01 8.495 4 9 C4 7.02 4 5.04 4 3 C3.01 3.33 2.02 3.66 1 4 C0.67 2.68 0.34 1.36 0 0 Z " fill="#2B2722" transform="translate(141,196)"/>
<path d="M0 0 C0 0.99 0 1.98 0 3 C-0.33 2.34 -0.66 1.68 -1 1 C-3.64 1.66 -6.28 2.32 -9 3 C-9 2.01 -9 1.02 -9 0 C-5.52176885 -1.15941038 -3.54104422 -0.70820884 0 0 Z " fill="#4E4030" transform="translate(53,186)"/>
<path d="M0 0 C1.8871875 0.0309375 1.8871875 0.0309375 3.8125 0.0625 C0.91157498 1.99645001 -0.08424737 2.36381941 -3.375 2.6875 C-4.633125 2.81125 -5.89125 2.935 -7.1875 3.0625 C-7.1875 2.4025 -7.1875 1.7425 -7.1875 1.0625 C-4.43671116 0.14557039 -2.82801087 -0.04636083 0 0 Z " fill="#D7D0C8" transform="translate(172.1875,152.9375)"/>
<path d="M0 0 C2.5 0.375 2.5 0.375 5.5 3.375 C1.87 3.375 -1.76 3.375 -5.5 3.375 C-2.5 0.375 -2.5 0.375 0 0 Z " fill="#EFE9E4" transform="translate(264.5,143.625)"/>
<path d="M0 0 C3.73584906 1.47169811 3.73584906 1.47169811 5 4 C3.02 4.33 1.04 4.66 -1 5 C-1.33 3.68 -1.66 2.36 -2 1 C-1.34 0.67 -0.68 0.34 0 0 Z " fill="#352A20" transform="translate(110,133)"/>
<path d="M0 0 C0 1.65 0 3.3 0 5 C-1.65 5 -3.3 5 -5 5 C-4.6875 3.0625 -4.6875 3.0625 -4 1 C-1 0 -1 0 0 0 Z " fill="#E1A96E" transform="translate(78,120)"/>
<path d="M0 0 C0 3 0 3 -1 5 C-0.34 5.33 0.32 5.66 1 6 C-2.01031744 6.93423645 -2.86650268 7.04449911 -6 6 C-4.02 4.02 -2.04 2.04 0 0 Z " fill="#C7BCAF" transform="translate(111,79)"/>
<path d="M0 0 C2.475 0.495 2.475 0.495 5 1 C3.515 4.465 3.515 4.465 2 8 C-0.1519437 4.77208445 -0.20086443 3.71599191 0 0 Z " fill="#130F0B" transform="translate(38,186)"/>
<path d="M0 0 C2.31 0 4.62 0 7 0 C7 0.99 7 1.98 7 3 C4.36 3 1.72 3 -1 3 C-0.67 2.01 -0.34 1.02 0 0 Z " fill="#1A130C" transform="translate(191,184)"/>
<path d="M0 0 C0.99 0.33 1.98 0.66 3 1 C2.01 2.32 1.02 3.64 0 5 C-1.32 4.34 -2.64 3.68 -4 3 C-4 2.34 -4 1.68 -4 1 C-2.68 1.33 -1.36 1.66 0 2 C0 1.34 0 0.68 0 0 Z " fill="#E5AC70" transform="translate(161,128)"/>
<path d="M0 0 C1.5 1.375 1.5 1.375 3 3 C3 3.66 3 4.32 3 5 C1 6.625 1 6.625 -1 8 C-1.66 6.68 -2.32 5.36 -3 4 C-2.34 4 -1.68 4 -1 4 C-0.67 2.68 -0.34 1.36 0 0 Z " fill="#302214" transform="translate(148,115)"/>
<path d="M0 0 C1 3 1 3 0.1875 5.625 C-1 8 -1 8 -3 9 C-2.25 2.25 -2.25 2.25 0 0 Z " fill="#261C12" transform="translate(63,111)"/>
<path d="M0 0 C1.74627478 2.61941217 2.38722388 4.03824877 3 7 C1.68 6.67 0.36 6.34 -1 6 C-1.33 6.66 -1.66 7.32 -2 8 C-2.33 6.68 -2.66 5.36 -3 4 C-2.01 4 -1.02 4 0 4 C0 2.68 0 1.36 0 0 Z " fill="#3C2C1A" transform="translate(143,105)"/>
<path d="M0 0 C1.9375 0.25 1.9375 0.25 4 1 C4.66 1.99 5.32 2.98 6 4 C4.68 3.67 3.36 3.34 2 3 C1.67 3.66 1.34 4.32 1 5 C0.34 3.68 -0.32 2.36 -1 1 C-0.67 0.67 -0.34 0.34 0 0 Z " fill="#251C13" transform="translate(89,110)"/>
<path d="M0 0 C2.04119788 1.61594832 4.04072937 3.2856382 6 5 C6 5.66 6 6.32 6 7 C2.63408134 5.55746343 0.48952921 3.66735273 -2 1 C-1.34 0.67 -0.68 0.34 0 0 Z " fill="#9C6E3F" transform="translate(82,106)"/>
<path d="M0 0 C0.33 0.99 0.66 1.98 1 3 C-0.8125 5.6875 -0.8125 5.6875 -3 8 C-3.66 8 -4.32 8 -5 8 C-3.62845496 5.04590299 -2.01136276 2.55991624 0 0 Z " fill="#A0907F" transform="translate(172,130)"/>
<path d="M0 0 C1.32 0.33 2.64 0.66 4 1 C3.67 2.32 3.34 3.64 3 5 C2.01 5 1.02 5 0 5 C0 3.35 0 1.7 0 0 Z " fill="#FEFEFD" transform="translate(195,125)"/>
<path d="M0 0 C1.65 0.33 3.3 0.66 5 1 C4.67 1.99 4.34 2.98 4 4 C3.01 3.67 2.02 3.34 1 3 C0.01 3.66 -0.98 4.32 -2 5 C-1.34 3.35 -0.68 1.7 0 0 Z " fill="#F3B77A" transform="translate(70,110)"/>
<path d="M0 0 C3.875 1.75 3.875 1.75 5 4 C4.01 4 3.02 4 2 4 C1.67 4.66 1.34 5.32 1 6 C0.01 4.68 -0.98 3.36 -2 2 C-1.34 2 -0.68 2 0 2 C0 1.34 0 0.68 0 0 Z " fill="#C38F5A" transform="translate(227,101)"/>
<path d="M0 0 C0 0.66 0 1.32 0 2 C1.32 2.33 2.64 2.66 4 3 C0.7 3.33 -2.6 3.66 -6 4 C-2.25 0 -2.25 0 0 0 Z " fill="#CD965D" transform="translate(147,95)"/>
<path d="M0 0 C3.3 0.33 6.6 0.66 10 1 C10 1.33 10 1.66 10 2 C9.195625 2.12375 8.39125 2.2475 7.5625 2.375 C6.2940625 2.684375 6.2940625 2.684375 5 3 C4.67 3.66 4.34 4.32 4 5 C3.71125 4.360625 3.4225 3.72125 3.125 3.0625 C2.17176549 0.84793921 2.17176549 0.84793921 0 0 Z " fill="#E6DED7" transform="translate(78,94)"/>
<path d="M0 0 C0.33 0.99 0.66 1.98 1 3 C-0.3125 4.5 -0.3125 4.5 -2 6 C-2.99 6 -3.98 6 -5 6 C-3.63016497 2.83884224 -3.0109362 2.0072908 0 0 Z " fill="#F1ECE6" transform="translate(115,78)"/>
<path d="M0 0 C0.33 0.99 0.66 1.98 1 3 C0.67 3.66 0.34 4.32 0 5 C-2.31 5 -4.62 5 -7 5 C-3.25 2 -3.25 2 -1 2 C-0.67 1.34 -0.34 0.68 0 0 Z " fill="#3E3329" transform="translate(215,201)"/>
<path d="M0 0 C0.33 0 0.66 0 1 0 C1.268125 0.94875 1.53625 1.8975 1.8125 2.875 C2.74986588 6.25267273 2.74986588 6.25267273 6 8 C3.69 7.67 1.38 7.34 -1 7 C-0.67 4.69 -0.34 2.38 0 0 Z " fill="#1C150F" transform="translate(24,189)"/>
<path d="M0 0 C0.99 0.33 1.98 0.66 3 1 C2.625 3.4375 2.625 3.4375 2 6 C1.01 6.495 1.01 6.495 0 7 C0 4.69 0 2.38 0 0 Z " fill="#C1B8AF" transform="translate(146,187)"/>
<path d="M0 0 C1.65 0 3.3 0 5 0 C3.75023244 3.65316671 3.32901247 4.78065836 0 7 C0 4.69 0 2.38 0 0 Z " fill="#4C3F33" transform="translate(260,186)"/>
<path d="M0 0 C1.99954746 -0.04254356 4.00041636 -0.04080783 6 0 C7 1 7 1 7.0625 3.5625 C7.041875 4.366875 7.02125 5.17125 7 6 C6.34 5.01 5.68 4.02 5 3 C2.44816596 1.79549696 2.44816596 1.79549696 0 1 C0 0.67 0 0.34 0 0 Z " fill="#6E6051" transform="translate(87,185)"/>
<path d="M0 0 C1.98 0.66 3.96 1.32 6 2 C5.67 2.99 5.34 3.98 5 5 C3.0625 4.1875 3.0625 4.1875 1 3 C0.67 2.01 0.34 1.02 0 0 Z " fill="#E5AB6F" transform="translate(222,98)"/>
<path d="M0 0 C0.33 0.66 0.66 1.32 1 2 C1.99 2.33 2.98 2.66 4 3 C1 5 1 5 -3 5 C-1.125 1.125 -1.125 1.125 0 0 Z " fill="#D6CCC1" transform="translate(115,75)"/>
<path d="M0 0 C1.9375 0.3125 1.9375 0.3125 4 1 C4.33 1.99 4.66 2.98 5 4 C4.34 4.66 3.68 5.32 3 6 C1.5 4.6875 1.5 4.6875 0 3 C0 2.01 0 1.02 0 0 Z " fill="#0D0904" transform="translate(130,76)"/>
</svg>
